<?xml version="1.0" standalone="no"?>
<!DOCTYPE svg PUBLIC "-//W3C//DTD SVG 1.1//EN" "http://www.w3.org/Graphics/SVG/1.1/DTD/svg11.dtd" >
<svg xmlns="http://www.w3.org/2000/svg">
<metadata></metadata>
<defs>
<font id="chintzy_cpu_shadow_brkregular" horiz-adv-x="1572" >
<font-face units-per-em="2048" ascent="1638" descent="-410" />
<missing-glyph horiz-adv-x="1024" />
<glyph unicode="&#xd;" horiz-adv-x="2048" />
<glyph unicode=" "  horiz-adv-x="1024" />
<glyph unicode="&#x09;" horiz-adv-x="1024" />
<glyph unicode="&#xa0;" horiz-adv-x="1024" />
<glyph unicode="!" horiz-adv-x="497" d="M20 594v903q0 29 15.5 55.5t38 47t50.5 34t52 19.5h72q35 0 74.5 -7.5t74.5 -24.5t57.5 -48t22.5 -76v-473q0 -20 -15.5 -46t-27.5 -40q-8 -8 -27.5 -29.5t-41 -44t-41 -43t-27.5 -28.5q-18 -35 -23.5 -88.5t-14.5 -105.5t-33.5 -89t-84.5 -37q-23 0 -44 10.5t-37.5 26.5 t-28 37.5t-11.5 46.5zM47 111v155q0 16 15.5 32.5t36 29t43 20.5t34.5 12q8 0 36 1t36 1q33 0 59.5 -3t49 -11t43 -23.5t42.5 -39.5q2 -4 5.5 -10.5t3.5 -8.5v-155q0 -31 -25 -50.5t-57.5 -31t-66.5 -16.5t-54 -5q-18 0 -52 5t-67 16.5t-57.5 31t-24.5 50.5zM55 715 q0 -14 7.5 -32.5t19.5 -34t27.5 -27t31.5 -11.5q45 0 62.5 41t25 94.5t13.5 106.5t28 78q8 8 28.5 29.5t43.5 46t44.5 47t29.5 30.5q4 4 15 28t11 34v344q0 20 -12 42.5t-31.5 42t-42 32t-43.5 12.5h-129q-18 0 -40.5 -12.5t-42 -32t-33 -42t-13.5 -42.5v-774zM80 242 q0 -14 11 -29.5t27.5 -29t34 -21.5t31.5 -8h129q14 0 33 8t34 20.5t26.5 27.5t11.5 32q0 14 -11.5 29.5t-26.5 27.5t-33.5 20.5t-33.5 8.5h-129q-14 0 -32.5 -8.5t-34 -20.5t-26.5 -27.5t-11 -29.5z" />
<glyph unicode="&#x22;" horiz-adv-x="1142" d="M20 1372q0 37 1.5 74t10.5 69.5t27.5 61.5t55.5 49q2 0 10 4t18.5 9.5t19.5 8.5t13 3h154q20 0 45.5 -13.5t48 -34t38 -45t15.5 -45.5v-610q0 -20 -11 -40.5t-28.5 -37t-38 -27t-39.5 -10.5q-47 0 -69.5 26t-34.5 62.5t-22.5 74.5t-32.5 63q-8 8 -28.5 30.5t-43.5 47 t-44.5 47t-29.5 30.5q-33 47 -34 98.5t-1 104.5zM53 1419q0 -33 5.5 -58t21.5 -54q8 -8 29.5 -31t44 -47.5t44 -47t29.5 -30.5q18 -18 27.5 -55t21 -73t30 -62.5t54.5 -26.5q27 0 54.5 30.5t27.5 57.5v483q0 16 -14 36t-33.5 36t-42 27.5t-39.5 11.5h-129q-4 0 -23.5 -9.5 t-27.5 -15.5q-47 -35 -63.5 -75.5t-16.5 -96.5zM666 1372q0 37 1 74t10 69.5t27.5 61.5t55.5 49q2 0 10 4t18.5 9.5t19.5 8.5t13 3h154q20 0 46 -13.5t48.5 -34t37.5 -45t15 -45.5v-610q0 -20 -11 -40.5t-28.5 -37t-38 -27t-38.5 -10.5q-47 0 -70 26t-35 62.5t-22.5 74.5 t-32.5 63q-8 8 -28.5 30.5t-43 47t-44.5 47t-30 30.5q-33 47 -33.5 98.5t-0.5 104.5zM700 1419q0 -33 4.5 -58t22.5 -54q8 -8 28.5 -31t43 -47.5t44 -47t29.5 -30.5q18 -18 27.5 -55t21 -73t30 -62.5t55.5 -26.5q29 0 55 30.5t26 57.5v483q0 16 -14 36t-33.5 36t-42 27.5 t-39.5 11.5h-129q-4 0 -23.5 -9.5t-27.5 -15.5q-47 -35 -62.5 -75.5t-15.5 -96.5z" />
<glyph unicode="#" horiz-adv-x="1513" d="M20 317v172q0 25 27 42.5t59.5 30.5t59.5 22.5t27 17.5v457q0 8 -16.5 15t-37 15.5t-40 15.5t-27.5 13l-43 43q-2 4 -5.5 10.5t-3.5 8.5v172q0 25 25 40t55.5 26.5t58 21.5t34.5 22q10 25 19 53.5t23.5 53t35 42t55.5 17.5q45 0 68.5 -28.5t36.5 -62.5t24.5 -62.5 t29.5 -28.5h543q18 0 28.5 28.5t25 62.5t38 62.5t68.5 28.5q37 0 57.5 -17.5t32.5 -43t20.5 -54t22.5 -51.5q8 -12 35.5 -22t58.5 -21.5t54.5 -27t23.5 -39.5v-172q0 -2 -3 -8.5t-5 -10.5l-43 -43q-12 -10 -35 -16t-43.5 -14.5t-35.5 -20.5t-15 -35v-395q0 -33 27.5 -48.5 t61.5 -27.5t62.5 -26.5t28.5 -45.5v-172q0 -2 -3 -8t-5 -8q-18 -23 -36.5 -34t-37 -19t-39 -14.5t-43.5 -18.5q-16 -8 -22.5 -36.5t-16.5 -59.5t-31.5 -54.5t-70.5 -23.5q-41 0 -66.5 27.5t-41 59.5t-24.5 59.5t-20 27.5h-344q-6 0 -15 -17.5t-18.5 -39t-17.5 -41t-10 -23.5 q-39 -53 -87 -69.5t-110 -16.5q-199 0 -241 199l-9 8q-12 2 -39.5 10t-55.5 21.5t-48.5 31t-20.5 39.5zM55 438q0 -2 19.5 -21.5t31.5 -29.5q20 -16 47 -17t48 -18q14 -12 21 -27.5t12.5 -30.5t10.5 -31.5t17 -31.5q2 -4 11.5 -13t18.5 -18.5t17.5 -17.5t12.5 -10 q4 -4 21 -11t22 -7h129q47 0 73.5 32.5t45 70.5t32.5 70.5t39 32.5h360q20 0 31.5 -15t19 -36.5t12.5 -43t15 -34.5q10 -10 29.5 -30.5t22.5 -20.5h26q2 0 21.5 20.5t29.5 30.5q12 14 17.5 31t9.5 33t11 30.5t24 26.5q18 14 45.5 16.5t48.5 18.5l14.5 14.5l16.5 16.5l20 20 v35q0 2 -20.5 21.5t-30.5 29.5q-18 14 -39.5 20.5t-42 13.5t-34 21.5t-13.5 49.5v524q0 31 14.5 44t35 20.5t42 12.5t37.5 17l14.5 14.5l16.5 16.5t20 22q0 33 -6 40.5t-14 15.5t-16.5 16t-14.5 14q-18 16 -43 15.5t-43 9.5q-20 12 -28.5 27.5t-13.5 33l-10 35t-18 33.5 q-10 12 -29.5 31.5t-21.5 19.5h-26q-2 0 -21.5 -19.5t-30 -31.5t-15.5 -33.5t-11 -43t-18.5 -37t-33.5 -15.5h-575q-23 0 -34 15.5t-17 37t-12.5 43t-14.5 33.5q-10 12 -29.5 31.5t-21.5 19.5h-27q-4 0 -22.5 -19.5t-28.5 -31.5q-20 -23 -20 -45q0 -20 -15 -49 q-10 -18 -24.5 -25.5t-31.5 -11.5t-34.5 -7t-30.5 -16q-12 -10 -31.5 -30.5t-19.5 -22.5v-33q0 -2 19.5 -22.5t31.5 -30.5q10 -8 31 -12t40.5 -10t34.5 -15.5t15 -29.5v-586q0 -20 -15 -29.5t-34.5 -15.5t-40 -11.5t-31.5 -13.5q-12 -10 -31.5 -29.5t-19.5 -21.5v-35z M416 1157q0 18 16.5 42t36.5 24h567q10 0 30.5 -14.5t20.5 -28.5v-586q0 -16 -20 -29.5t-31 -13.5h-344q-25 0 -45 27.5t-20 50.5v231l-21 35q-8 8 -29.5 30.5t-44 47t-44 46t-29.5 32.5q-18 20 -30.5 48.5t-12.5 57.5zM494 1075q8 -8 26.5 -27.5t39 -41t38.5 -41t25 -27.5 q4 -4 10 -14.5t12 -21.5t11.5 -21.5t5.5 -12.5v-231q0 -8 15 -29.5t23 -21.5h328l25 24v449l-17 16h-542z" />
<glyph unicode="$" d="M20 844v411q0 25 12.5 60t30.5 53l242 240q12 14 39 28.5t47 14.5h799q20 0 47 -14.5t39 -28.5l250 -248v-182q0 -33 -33 -46.5t-57 -13.5q-12 0 -24.5 -1t-22.5 9l-146 138l-53 26h-137l-25 -26v-215q0 -12 11.5 -20.5t21.5 -12.5q25 0 53.5 -1t58 -6t56 -15.5 t47.5 -30.5l242 -240q10 -10 22 -32.5t12 -37.5v-293l-26 -51l-266 -266q-16 -16 -49 -25.5t-54 -9.5h-733q-20 0 -53 9.5t-49 25.5l-267 266v180q0 14 10.5 25.5t24.5 20t29.5 12.5t25.5 4q16 0 28.5 -2t27.5 -17l137 -129v215l-25 27q-47 2 -98 10.5t-94 30t-72 59 t-29 99.5zM55 954q0 -53 27 -85.5t66.5 -50t86 -22.5t87.5 -5q14 -4 32.5 -19.5t18.5 -32.5v-352q0 -16 -16.5 -18t-24.5 -2q-4 0 -19 2l-155 147h-25q-4 0 -21.5 -16.5t-21.5 -26.5q-2 -2 -3 -8t-1 -10t1 -10.5t3 -6.5l266 -266l43 -18h775q8 0 32.5 11t26.5 15l285 285 v197l-285 284q-4 4 -26.5 14.5t-32.5 12.5q-6 0 -25 2t-40.5 3t-39.5 2t-25 1q-14 4 -32.5 19.5t-18.5 31.5v352q0 14 18.5 33t32.5 19h146q2 0 12 -3t15 -6q63 -27 111 -75.5t95 -96.5h25q4 0 21.5 16.5t21.5 26.5q2 2 3 8.5t1 10.5t-1 10t-3 6l-258 258q-2 4 -26.5 15.5 t-32.5 11.5h-775l-51 -27l-268 -266q-10 -10 -17.5 -37.5t-7.5 -40.5v-293zM236 1208q0 20 4 53t14 65t29.5 54.5t50.5 22.5q8 0 23.5 -1t15.5 -18v-352q0 -16 -15.5 -17t-23.5 -1q-31 0 -50.5 22.5t-29.5 54t-14 64.5t-4 53zM279 1151q0 -35 16 -57.5t43 -44.5v211 q-16 0 -26.5 -12.5t-18.5 -30t-11 -36t-3 -30.5zM563 387v352q0 14 18.5 33t32.5 19h138q14 0 32.5 -18.5t18.5 -33.5v-352q0 -14 -18.5 -32.5t-32.5 -18.5h-138q-2 0 -8 3l-10 5l-17.5 17.5t-15.5 25.5zM563 1032v352q0 14 18.5 33t32.5 19h138q14 0 32.5 -18.5t18.5 -33.5 v-352q0 -14 -18.5 -32.5t-32.5 -18.5h-138q-2 0 -8 3l-10 5l-17.5 17.5t-15.5 25.5zM596 403q0 -10 12.5 -22t22.5 -12h104q10 0 21.5 12t11.5 22v215l-25 27h-120l-27 -27v-215zM596 1049q0 -10 12.5 -21.5t22.5 -11.5h104q10 0 21.5 11t11.5 22v215l-25 26h-120l-27 -26 v-215zM993 387v352q0 16 15.5 17.5t23.5 1.5q14 0 29.5 -10.5t29 -26.5t22.5 -34.5t9 -33.5v-180q0 -16 -9 -33.5t-22.5 -34t-28.5 -26.5t-30 -10q-8 0 -23.5 1t-15.5 17zM1028 403q27 23 44.5 46.5t17.5 58.5q0 10 -4.5 27.5t-11.5 34t-18.5 28.5t-23.5 12h-4v-207z" />
<glyph unicode="%" d="M20 1059v411q0 27 12.5 59t34 59.5t50 45t59.5 17.5h369q20 0 45.5 -13.5t48.5 -33t38 -44t15 -47.5v-507q0 -29 -19.5 -53.5t-47 -43t-59 -30t-56.5 -11.5h-301q-4 0 -24.5 3.5t-26.5 5.5q-57 20 -97.5 70t-40.5 112zM55 102v181l1325 1325q12 14 25.5 16t30.5 2 q10 0 25.5 -4t29.5 -12t24.5 -19.5t10.5 -25.5v-181l-1333 -1333q-10 -10 -25 -10h-23q-25 0 -57.5 14.5t-32.5 46.5zM55 1169q0 -43 26.5 -77.5t59.5 -59.5q4 -4 21.5 -10t21.5 -6h344q16 0 39 11t42.5 27.5t33.5 36t14 35.5v379q0 16 -14 36t-33.5 37t-42 28.5t-39.5 11.5 h-344q-25 0 -48 -16.5t-40.5 -40t-29 -50t-11.5 -49.5v-293zM86 242q0 -4 1 -10.5t3 -8.5q4 -10 21.5 -26.5t21.5 -16.5h25l1333 1333q2 2 3 7.5t1 9.5t-1 10t-3 8q-4 10 -21.5 26.5t-21.5 16.5h-25l-1333 -1333q-2 -2 -3 -7t-1 -9zM236 1321q0 12 1 31.5t7 38t17 32 t34 13.5h129q10 0 31.5 -13.5t21.5 -29.5v-154q0 -16 -21.5 -29.5t-31.5 -13.5h-129q-23 0 -35 14.5t-17 34t-6 41t-1 35.5zM279 1264q0 -10 6 -21.5t20 -11.5h111q12 0 19 11t7 22q0 8 -4 17t-14 9h-129q-10 0 -13 -9t-3 -17zM881 197v413q0 27 12 58.5t33.5 59.5 t50.5 45.5t59 17.5h369q20 0 46 -13.5t48.5 -34t37.5 -45t15 -45.5v-508q0 -29 -19.5 -53t-47 -42.5t-58 -30t-55.5 -11.5h-301q-6 0 -26.5 3t-26.5 5q-57 20 -97 70.5t-40 110.5zM915 301q0 -39 29.5 -74t56.5 -55q4 -4 21.5 -11t21.5 -7h345q16 0 38.5 11t42 27.5t34 37 t14.5 36.5v379q0 16 -14.5 35.5t-34 36t-42 28t-38.5 11.5h-345q-25 0 -47 -15.5t-40.5 -39t-30 -50t-11.5 -49.5v-301zM1096 461q0 12 1 31.5t7 38t18.5 31.5t34.5 13h129q10 0 30.5 -13t20.5 -30v-153q0 -16 -20.5 -29.5t-30.5 -13.5h-129q-23 0 -35 14.5t-18 33.5t-7 41 t-1 36zM1139 403q0 -10 7 -22t19 -12h111q14 0 20.5 12t6.5 22q0 8 -3.5 17.5t-13.5 9.5h-129q-10 0 -14 -9.5t-4 -17.5z" />
<glyph unicode="&#x26;" horiz-adv-x="1546" d="M20 412v1058q0 27 12.5 59t34 59.5t50 45t59.5 17.5h686q12 0 35 -9.5t43.5 -23.5t35.5 -30.5t15 -31.5v-155q0 -20 -18.5 -40t-43 -34t-51 -23.5t-40.5 -9.5h-543q-10 0 -15.5 -12t-8.5 -27.5t-3 -29.5v-17q0 -27 3 -60.5t24 -55.5l164 -164q10 -10 36.5 -17.5 t41.5 -7.5h497q37 0 52.5 27.5t27.5 61.5t33.5 62.5t73.5 28.5q49 0 70.5 -23.5t31.5 -54t16.5 -58t22.5 -36.5q14 -8 42 -16t54.5 -19.5t47 -28t20.5 -40.5v-170q0 -31 -29 -46.5t-63.5 -27.5t-63.5 -27.5t-29 -46.5v-344q0 -25 -20.5 -48t-50 -43.5t-61 -33t-54.5 -12.5 h-731q-20 0 -53 9.5t-49 25.5l-267 266q-16 16 -25.5 49t-9.5 54zM55 524q0 -14 7.5 -40.5t17.5 -37.5l276 -274l43 -18h775q14 0 36.5 12t44 30.5t37 38t15.5 31.5v344q0 41 28.5 57.5t64.5 27t64.5 26.5t28.5 57q0 37 -23.5 52.5t-53.5 22.5t-58.5 16.5t-38.5 33.5 q-8 16 -14.5 42t-15.5 49.5t-25.5 40t-42.5 16.5q-41 0 -56.5 -29t-27 -62.5t-26.5 -62.5t-58 -29h-525q-27 0 -59.5 12.5t-52.5 30.5l-137 138q-18 20 -27.5 46.5t-12.5 56.5t-3 58v54v102q4 20 18 47t41 27h559q12 0 29.5 8t35 21.5t28.5 30t11 30.5t-11 29.5t-26.5 27.5 t-34 20.5t-32.5 8.5h-670q-25 0 -48 -15.5t-40.5 -39t-29 -50t-11.5 -49.5v-938zM450 604q-1 27 9 41q4 8 17 21.5t18 13.5h593l33 -35v-266q0 -16 -20.5 -29.5t-30.5 -13.5h-463q-43 0 -72.5 23.5t-48 58.5t-26.5 73.5t-8 71.5q0 14 -1 41zM492 500q0 -20 11 -44 t28.5 -43.5t39 -31.5t43.5 -12h447l26 26v121l-26 25h-541q-20 0 -24 -15.5t-4 -25.5z" />
<glyph unicode="'" horiz-adv-x="497" d="M20 1239v258q0 43 23 72.5t57.5 48t73.5 27t74 8.5q10 0 37.5 -1t36.5 -1q25 -6 52 -19.5t49.5 -34t38 -46t15.5 -54.5v-577q0 -23 -11 -45.5t-27.5 -41t-39 -30.5t-43.5 -12q-45 0 -67.5 22.5t-34.5 54t-20.5 67t-24.5 62.5q-47 49 -99.5 99.5t-80.5 115.5 q-2 4 -5.5 14.5t-3.5 12.5zM55 1358q0 -8 11.5 -31.5t13.5 -28.5l156 -163q20 -23 26 -45.5t12.5 -47t18.5 -50t47 -56.5q2 0 8 -1t8 -1q14 0 29.5 11t28 27.5t20.5 35t8 32.5v449q0 20 -12 42.5t-31.5 42t-42 32t-43.5 12.5h-129q-20 0 -42.5 -12.5t-42 -32t-32 -42 t-12.5 -42.5v-131z" />
<glyph unicode="(" horiz-adv-x="790" d="M20 379v903q0 16 11.5 41t23.5 37l267 266q8 8 33.5 17.5t35.5 9.5h258q12 0 31.5 -8.5t40 -20.5t35 -27.5t14.5 -29.5v-172q0 -20 -18.5 -38t-44 -30t-52 -19.5t-41.5 -7.5q-12 0 -45.5 -2t-70.5 -3t-70 -3t-45 -2q-20 -4 -40.5 -17t-36 -31.5t-26 -40t-10.5 -42.5 q0 -20 8.5 -38.5t18.5 -35.5q8 -10 29.5 -31.5t44 -46t43 -47t28.5 -30.5q10 -10 24.5 -39t14.5 -39v-352q0 -4 11.5 -29t19.5 -33q16 -25 59 -44t87 -37.5t78 -38t34 -44.5v-172q0 -2 -3 -8t-5 -8q-27 -31 -54.5 -47t-57 -22.5t-63.5 -7.5t-71 -1h-53q-29 0 -57.5 3 t-55 12.5t-45.5 27.5l-242 242q-12 12 -27.5 39.5t-15.5 46.5zM55 500q0 -8 11.5 -33t13.5 -29l260 -258q2 -4 26.5 -15t32.5 -11h234q14 0 32.5 8t34 21.5t26.5 28.5t11 30q0 2 -1 8t-1 8q-29 33 -62.5 49.5t-67.5 30.5t-66.5 31.5t-61.5 52.5q-2 2 -7 11t-10 20.5 t-9.5 21.5t-4.5 14v355q0 6 -11 29.5t-19 29.5l-154 164q-25 27 -25.5 70t-0.5 73q0 70 14 113t72 88q2 2 12 7t21.5 10.5t21.5 9.5t14 4h242q12 0 29.5 9t35 22.5t28.5 29t11 29.5t-11 29.5t-26.5 28t-34 20.5t-32.5 8h-234q-8 0 -32.5 -11.5t-26.5 -13.5l-260 -258 q-2 -4 -13.5 -28.5t-11.5 -32.5v-774z" />
<glyph unicode=")" horiz-adv-x="790" d="M20 102v172q0 35 44.5 53.5t98.5 39t98 49t44 84.5v661q0 10 -11 34t-15 28q-18 23 -38 40t-48.5 27t-50 16.5t-40 13.5t-36 20.5t-37.5 37.5q-2 2 -5.5 8.5t-3.5 8.5v172q0 18 17.5 33.5t40 27.5t46.5 19.5t36 7.5q23 0 50.5 -6.5t43.5 -22.5l266 -266q27 -27 34 -61.5 t9 -71.5t5 -74t22 -68q8 -10 28.5 -31.5t43 -46t44 -47t29.5 -30.5q12 -14 23.5 -38t11.5 -40v-473q0 -18 -15.5 -46t-27.5 -40l-242 -242q-18 -18 -44.5 -27.5t-55.5 -12.5t-57 -3h-54q-37 0 -70.5 1t-63 7.5t-57.5 22.5t-54 47q-2 2 -5.5 8t-3.5 8zM55 223 q0 -4 19.5 -23.5t31.5 -27.5q6 -4 22.5 -11t21.5 -7h241q8 0 33 11t27 15l258 258q4 4 15 29t11 33v344q0 8 -11 32.5t-15 26.5l-154 164q-25 27 -28 61.5t-2 72.5t-2 73t-29 61l-258 258q-16 16 -32 21.5t-36 5.5q-14 0 -31.5 -4t-30 -14.5t-32 -30t-19.5 -21.5v-34 q0 -2 19.5 -21.5t31.5 -30.5q14 -12 33 -17t39.5 -9t40 -9.5t35.5 -17.5l51 -51q10 -12 22.5 -37t12.5 -41v-793q0 -16 -12.5 -39.5t-22.5 -35.5q-35 -39 -61.5 -52.5t-49 -18.5t-44 -9t-44.5 -25q-12 -10 -31.5 -29.5t-19.5 -21.5v-35z" />
<glyph unicode="*" horiz-adv-x="1083" d="M20 748v172q0 18 18.5 33.5t43 27.5t48.5 20.5t36 12.5q-8 8 -19.5 21.5t-22.5 28.5t-18.5 31.5t-7.5 30.5v164q0 18 27 30.5t41 12.5q27 0 56.5 -13t47.5 -30l258 -250h27l258 250q18 16 48 29.5t54 13.5q18 0 44 -14t26 -37v-156q0 -14 -8 -30.5t-18.5 -31.5 t-22.5 -28.5t-21 -21.5q12 -4 37 -12.5t49.5 -20.5t43 -27.5t18.5 -33.5v-172q0 -18 -17.5 -36t-41 -30t-49 -20.5t-40.5 -8.5q8 -12 20.5 -26.5t23 -30.5t18.5 -32.5t8 -31.5v-155q0 -25 -25.5 -34t-44.5 -9q-20 0 -44.5 5t-41.5 21l-266 258h-43l-266 -258 q-16 -16 -41 -21t-47 -5q-16 0 -42 9t-26 34v164q0 10 8.5 25.5t19.5 31.5t22.5 30.5t17.5 24.5q-14 0 -39 8.5t-48.5 20.5t-41 29.5t-17.5 36.5zM53 885q0 -2 1 -8.5t1 -8.5q45 -61 101.5 -70.5t130.5 -6.5q16 -4 18 -17.5t2 -23.5q0 -4 -1 -11.5t-1 -9.5l-155 -162 q-10 -10 -14.5 -27.5t-4.5 -29.5q0 -18 11.5 -24.5t27.5 -6.5t29.5 2t27.5 17l258 250q14 12 26.5 15t29.5 3q16 0 29.5 -3t27.5 -15l258 -250q14 -14 27.5 -16.5t29.5 -2.5t26.5 6.5t10.5 24.5q0 12 -3 29.5t-13 27.5l-156 162q0 2 -1 9t-1 12q0 10 2 23t17 18q8 0 26.5 1 t39 2t39 3t26.5 2q14 2 32.5 9t34 19.5t26.5 26.5t11 31q0 16 -11 30.5t-26.5 26.5t-34 19.5t-32.5 9.5q-8 0 -26.5 2t-39 3t-39 2t-26.5 1q-14 4 -16.5 17.5t-2.5 25.5q0 4 1 10t1 8l156 164q10 10 13 26.5t3 31.5q0 18 -10 23t-27 5q-16 0 -29.5 -2t-27.5 -16l-258 -250 q-14 -12 -27.5 -15t-29.5 -3t-28.5 3t-27.5 15l-258 250q-14 14 -27.5 16t-29.5 2t-27.5 -5t-11.5 -23q0 -14 4 -31t15 -27l155 -164q0 -2 1 -8t1 -10q0 -8 -2 -27.5t-18 -19.5h-137q-12 0 -29 -10.5t-32 -23.5t-25.5 -28.5t-10.5 -27.5z" />
<glyph unicode="+" horiz-adv-x="1513" d="M20 748v172q0 18 24 34.5t36 24.5t35.5 19.5t25.5 11.5q344 0 350.5 4t10.5 8l10 10q2 4 12 17v344q0 2 11.5 25.5t19.5 35.5q16 33 37.5 46t58.5 13q47 0 73 -30.5t38 -72.5t14 -87t2 -76l17 -43l172 -172l43 -22h362q2 0 24.5 -11.5t35.5 -19.5q14 -8 37.5 -24.5 t23.5 -34.5v-172q0 -18 -18.5 -36t-44 -31t-52 -22.5t-41.5 -9.5h-317l-31 -31v-344q0 -4 -8 -23.5t-14 -29.5q-33 -66 -88.5 -84t-122.5 -18q-70 0 -113 14t-88 72q-2 2 -7 12t-10.5 21.5t-9.5 21.5t-4 14v344l-30 31h-318q-14 0 -40.5 9.5t-52.5 22.5t-44.5 30.5 t-18.5 36.5zM53 877q0 -7 2 -9q4 -6 14.5 -18t25 -24.5t28.5 -21.5t27 -9h352q2 0 8 -4.5t10 -8.5t13.5 -13t11.5 -13q4 -4 14 -17v-354q0 -4 8 -20.5t13 -22.5q41 -49 78.5 -67.5t97.5 -18.5q53 0 93 15.5t75 62.5q8 8 19 32.5t11 28.5q0 344 4.5 350.5t8.5 10.5l26 26 q4 4 17 13h346q12 0 29.5 9t35 22.5t28.5 28.5t11 30q0 14 -11 29.5t-28.5 28.5t-35 22.5t-29.5 9.5h-355q-25 0 -61.5 27.5t-72.5 62.5t-63.5 68.5t-33.5 44.5q-14 25 -19.5 75t-14.5 101t-27.5 89t-59.5 38q-2 0 -8 -1t-10 -1q-4 -4 -16.5 -15.5t-24.5 -25t-21.5 -27.5 t-9.5 -27v-352q0 -2 -5 -8t-9 -10q-2 -4 -11.5 -13.5t-13.5 -11.5q-4 -4 -10 -9t-8 -5h-352q-12 0 -29 -10.5t-32 -23.5t-25.5 -28.5t-10.5 -27.5v-8z" />
<glyph unicode="," horiz-adv-x="575" d="M20 104v172q0 14 14.5 30t35 28t40 20t31.5 8h258q25 0 52.5 -15t50 -37.5t38 -50.5t15.5 -52v-473q0 -23 -11.5 -45.5t-27.5 -39t-39 -26.5t-43 -10q-61 0 -83.5 38t-31 90t-12.5 106.5t-28 84.5q-18 23 -38 40.5t-48.5 27.5t-50 15t-40 13.5t-36 20.5t-37.5 37 q-2 4 -5.5 10t-3.5 8zM53 242q0 -2 1 -8.5t1 -8.5q27 -33 59.5 -49t65.5 -28.5t64.5 -29t60.5 -48.5q14 -16 21.5 -46t11.5 -66t8 -73t14.5 -66.5t26.5 -49t47 -19.5q14 0 29.5 11.5t28 26.5t20.5 33.5t8 33.5v344q0 20 -12 42.5t-31.5 42t-42 32t-43.5 12.5h-241 q-12 0 -29 -8.5t-32 -21.5t-25.5 -28.5t-10.5 -27.5z" />
<glyph unicode="-" horiz-adv-x="1513" d="M20 748v172q0 14 14.5 29.5t35 27.5t40 20.5t31.5 8.5h1231q12 0 31.5 -8.5t40 -20.5t35 -27.5t14.5 -29.5v-172q0 -18 -18.5 -36t-44 -31t-52 -20.5t-41.5 -7.5h-1161q-6 0 -26.5 3.5t-26.5 5.5q-10 4 -27.5 12t-34 19.5t-29 25.5t-12.5 29zM53 877q0 -7 2 -9 q10 -16 39 -42.5t56 -26.5h1206q14 0 32.5 8t34 20.5t26.5 27.5t11 30q0 14 -11 29.5t-26.5 28.5t-34 21.5t-32.5 8.5h-1206q-12 0 -29 -9.5t-32 -22.5t-25.5 -28.5t-10.5 -27.5v-8z" />
<glyph unicode="." horiz-adv-x="446" d="M20 113v153q0 16 15.5 32.5t36 30t43 21.5t35.5 12h73q68 0 109 -13t86 -64q2 -4 5 -10.5t3 -8.5v-153q0 -31 -24.5 -51.5t-57.5 -32t-67.5 -16.5t-53.5 -5q-18 0 -53 5t-67.5 16.5t-57.5 32t-25 51.5zM55 242q0 -14 11.5 -29.5t27 -28t32.5 -20.5t32 -8h129q14 0 32.5 7 t34 19.5t26.5 27.5t11 32q0 14 -11 29.5t-26.5 27.5t-34 20.5t-32.5 8.5h-129q-14 0 -31.5 -8.5t-33 -20.5t-27 -27.5t-11.5 -29.5z" />
<glyph unicode="/" horiz-adv-x="1513" d="M20 94v191l1326 1325q14 14 27 16t30 2q10 0 25.5 -4t30 -12t24.5 -19.5t10 -25.5v-181l-1335 -1335q-10 -10 -22.5 -9t-24.5 1q-14 0 -25.5 -1t-22 9t-27 25.5t-16.5 17.5zM51 242q0 -4 1 -10.5t3 -8.5q4 -10 21.5 -26.5t21.5 -16.5h25q1335 1335 1336 1341.5t1 10.5 t-1 10t-1 8q-6 10 -22.5 26.5t-20.5 16.5h-26l-1334 -1335q-2 0 -3 -6t-1 -10z" />
<glyph unicode="0" horiz-adv-x="1581" d="M20 197v1265q0 29 12.5 61.5t33 61.5t49 47.5t61.5 18.5h1229q25 0 49.5 -13.5t44 -34t33.5 -45.5t20 -45v-141q0 -94 1 -214t2 -251t2.5 -250.5t2.5 -215t1 -140.5v-65q0 -41 -12.5 -82t-36 -74t-59.5 -52.5t-83 -19.5h-1161q-37 0 -71 15.5t-60.5 42t-42 60.5t-15.5 71 zM55 309q0 -25 11.5 -52.5t31 -50t44 -37.5t51.5 -15h1204q14 0 34.5 12t40 28.5t33 36t13.5 35.5l8 1204q0 25 -12.5 50.5t-33 47t-44 35t-47.5 13.5h-1196q-27 0 -51.5 -15.5t-44 -38t-31 -49t-11.5 -51.5v-1153zM236 508v739q0 29 12 61.5t32.5 61.5t49 47.5t61.5 18.5 h791q16 0 17 -16.5t1 -24.5v-13q0 -6 -2 -6q-903 -903 -908 -904t-9 -1q-14 0 -29.5 10.5t-15.5 26.5zM270 524l9 -8l774 774h-662q-25 0 -46 -16.5t-38.5 -41t-27 -51t-9.5 -46.5v-611zM379 377q0 4 2 18l895 895q8 6 15 7t16 1q12 0 25.5 -10t13.5 -24v-756 q0 -29 -14.5 -58.5t-36 -55t-50 -42t-55.5 -16.5h-791q-16 0 -18 16.5t-2 24.5zM520 369h662q14 0 34.5 12t40 28.5t33 36t13.5 35.5v672z" />
<glyph unicode="1" horiz-adv-x="497" d="M20 164v688q0 16 11.5 39.5t23.5 38.5q8 8 28.5 29.5t43.5 46t44.5 47t29.5 30.5q10 16 18 36t8 40q0 37 -26 64l-154 163v173q0 16 15.5 32.5t36 28.5t43 20.5t34.5 12.5h72q35 0 74.5 -7.5t74.5 -24.5t57.5 -48t22.5 -76v-1333q0 -41 -23.5 -71t-58.5 -48t-74.5 -27.5 t-72.5 -9.5q-31 0 -71 9.5t-74.5 27.5t-58.5 48t-24 71zM55 285q0 -20 12.5 -44t32 -43.5t42 -31.5t42.5 -12h129q20 0 43 12t42.5 31.5t31.5 43t12 44.5v1204q0 20 -12 42.5t-31.5 42t-42 32t-43.5 12.5h-129q-14 0 -32.5 -8t-34 -20.5t-26.5 -28t-11 -29.5t10 -27 l146 -153q25 -29 25.5 -73t0.5 -75v-78q-10 -35 -31.5 -65.5t-48 -59t-54.5 -53.5t-48 -45q-2 -4 -13.5 -26.5t-11.5 -32.5v-559z" />
<glyph unicode="2" horiz-adv-x="1581" d="M20 197v620q0 49 26 94t69 70q12 6 35.5 17.5t25.5 11.5h1006q18 0 39.5 15t39 36.5t30 46.5t12.5 43t-10.5 43t-26 47.5t-36 37.5t-40.5 15h-981q-14 0 -40 9.5t-51.5 22.5t-44 30.5t-18.5 36.5v172q0 14 14.5 29.5t35 27.5t40 20.5t31.5 8.5h1229q25 0 49.5 -13.5 t44 -34t33.5 -45t20 -45.5v-67q0 -43 1 -99.5t2 -118t2.5 -117.5t2.5 -100t1 -65v-63q0 -41 -12.5 -82t-36 -75t-59.5 -55.5t-83 -21.5h-764q-20 0 -40.5 -15.5t-37 -38t-26.5 -47t-10 -40.5q0 -20 12 -46t31.5 -47.5t42 -35.5t45.5 -14h782q2 0 25.5 -11.5t35.5 -17.5 q12 -8 36 -25.5t24 -36.5v-172q0 -18 -18.5 -35.5t-44 -30.5t-52.5 -20.5t-41 -7.5h-1161q-37 0 -71 15.5t-60.5 42t-42 60.5t-15.5 71zM55 309q0 -25 11.5 -52.5t31 -50t44 -37.5t51.5 -15h1204q12 0 28.5 9t32 21.5t25.5 27.5t10 28v10t-2 8q-12 18 -43 45t-59 27h-783 q-2 0 -25.5 12t-35.5 18q-55 31 -74.5 85.5t-19.5 113.5q0 61 17 117.5t77 89.5q12 6 35.5 17.5t25.5 11.5h791q12 0 31.5 13t40 32.5t35 39t14.5 31.5l8 559q0 25 -12.5 50.5t-33 47t-44 35t-47.5 13.5h-1196q-14 0 -33 -8.5t-34 -20.5t-26.5 -27.5t-11.5 -29.5t11.5 -29.5 t28.5 -29t34.5 -22.5t30.5 -9h997q2 0 25.5 -11.5t35.5 -17.5q37 -20 55.5 -48t27.5 -61.5t10.5 -71.5t1.5 -75q0 -35 -24 -78t-54 -63q-6 -4 -18.5 -10.5t-25 -12.5t-22.5 -11t-12 -5h-997q-23 0 -47.5 -16.5t-45 -40t-33 -51t-12.5 -50.5v-508z" />
<glyph unicode="3" horiz-adv-x="1546" d="M20 102v172q0 18 24 36t36 26q12 6 35.5 17.5t25.5 11.5h791q18 0 39.5 15t39 36.5t30 46.5t12.5 43t-10.5 42.5t-26 47t-35.5 38t-41 15.5h-334q-14 0 -40.5 9.5t-52.5 22.5t-44 30.5t-18 36.5v172q0 18 22.5 35.5t36.5 23.5q12 8 35.5 19.5t25.5 11.5h361q18 0 39.5 15 t39 36.5t30 46.5t12.5 43t-10.5 43t-26 47.5t-35.5 37.5t-41 15h-764q-14 0 -40.5 9.5t-52.5 22.5t-44.5 30.5t-18.5 36.5v172q0 14 14.5 29.5t35 27.5t40 20.5t31.5 8.5h1014q20 0 46 -14.5t49.5 -35t40 -44t16.5 -44.5v-344q0 -14 11 -39.5t17 -37.5q20 -20 48 -45 t54.5 -53.5t48 -60.5t32.5 -65v-65t1 -101.5t2 -118t2 -117.5t2 -100t1 -65v-70q0 -41 -12.5 -80.5t-36 -71.5t-59.5 -51.5t-83 -19.5h-1159q-16 0 -41.5 7.5t-51.5 20.5t-44.5 30.5t-18.5 35.5zM53 240q0 -14 11.5 -29.5t26.5 -28t33.5 -20.5t33.5 -8h1204q14 0 34.5 12 t39 28.5t33 36t14.5 35.5l8 559q0 14 -9 36t-18 32q-8 8 -27.5 29.5t-41 44t-41 44t-27.5 29.5q-23 23 -37 55.5t-14 65.5v309q0 25 -12.5 50.5t-32 47t-44 35t-48.5 13.5h-981q-14 0 -33 -8.5t-34 -20.5t-26.5 -27.5t-11.5 -29.5t11.5 -29.5t29 -29t34.5 -22.5t30 -9h782 q2 0 25.5 -11.5t35.5 -19.5q37 -18 55.5 -47t28 -61.5t10.5 -70.5t1 -75q0 -35 -23.5 -78t-54.5 -63q-6 -4 -18.5 -10.5t-24.5 -12.5t-22.5 -11t-12.5 -5h-352q-12 0 -29.5 -9.5t-35 -22.5t-29 -28.5t-11.5 -29.5t11.5 -29.5t29 -29t34.5 -22.5t30 -9h352q2 0 25.5 -11.5 t35.5 -19.5q37 -18 55.5 -47t28 -61.5t10.5 -70.5t1 -75q0 -35 -23.5 -78t-54.5 -63q-6 -4 -18.5 -10.5t-24.5 -12.5t-22.5 -11t-12.5 -5h-782q-12 0 -29.5 -9.5t-35 -22.5t-29 -28.5t-11.5 -29.5z" />
<glyph unicode="4" horiz-adv-x="1546" d="M20 627v835q0 25 8.5 53.5t25 53t39.5 41t52 16.5q18 0 39 -10t39.5 -26.5t30.5 -37t12 -39.5v-559q0 -25 13.5 -51t33 -50t45 -39t50.5 -15h559q12 0 32.5 13t41 31.5t36 37t15.5 30.5v551q0 25 10 53.5t26.5 53t40 41t52.5 16.5q16 0 37.5 -10t40 -26.5t30.5 -37 t12 -39.5v-559q0 -10 10.5 -39.5t18.5 -37.5l156 -164v-189l-148 -155q-16 -18 -23 -42t-8 -49.5t0 -51t-1 -46.5q-4 -45 -26 -77.5t-55.5 -53t-73.5 -31t-79 -10.5q-61 0 -109.5 16.5t-87.5 69.5q-29 37 -32.5 77t-6 80t-12.5 78t-53 74q-4 2 -24.5 16.5t-26.5 14.5h-551 q-37 0 -71 16.5t-59.5 44t-42 62.5t-16.5 70zM55 739q0 -23 12.5 -50t33 -52t45 -41t47.5 -16h567q2 0 24.5 -11.5t34.5 -17.5q57 -33 72.5 -79t19.5 -97t16.5 -102.5t63.5 -92.5q4 -4 28.5 -15t33.5 -11h129q18 0 37.5 11t36 28.5t29.5 37t18 35.5q0 27 1 58.5t5 65.5 t14 64.5t31 53.5q8 8 27.5 28.5t41 43t41 44t27.5 29.5v35q-8 8 -26.5 27.5t-39 41t-39 41t-24.5 27.5q-23 23 -37 55.5t-14 65.5v524q0 12 -9.5 35t-17.5 33q-10 12 -28.5 32.5t-22.5 20.5h-27q-2 0 -21.5 -20.5t-29.5 -32.5t-17.5 -35.5t-7.5 -40.5v-526q0 -27 -14 -57.5 t-35.5 -56t-50.5 -42t-55 -16.5h-584q-31 0 -59.5 18.5t-50 45t-33.5 58.5t-12 60v524q0 12 -9.5 35t-17.5 33q-10 12 -28.5 32.5t-22.5 20.5h-25q-4 0 -23.5 -20.5t-29.5 -32.5t-17.5 -35.5t-7.5 -40.5v-723z" />
<glyph unicode="5" horiz-adv-x="1581" d="M20 842v620q0 29 12.5 61.5t33 61.5t49 47.5t61.5 18.5h1229q12 0 31.5 -8.5t40 -20.5t35 -27.5t14.5 -29.5v-172q0 -18 -18.5 -36t-44 -31t-52.5 -22.5t-41 -9.5h-979q-18 0 -37.5 -15t-37 -36.5t-27.5 -44t-10 -39.5q0 -23 11 -49.5t29.5 -49t42 -36.5t46.5 -14h997 q23 0 46.5 -14.5t44 -36t35.5 -46t21 -45.5v-65t1 -101.5t2 -118t2.5 -117.5t2.5 -100t1 -65v-70q0 -41 -12.5 -80.5t-36 -71.5t-59.5 -51.5t-83 -19.5h-1161q-16 0 -42 7.5t-50.5 20.5t-43 30.5t-18.5 35.5v172q0 8 7.5 17.5t17.5 18.5t20.5 15.5t14.5 10.5q12 6 34.5 17.5 t26.5 11.5h791q18 0 39.5 15t39 36.5t29.5 46.5t12 43t-10 42.5t-25.5 47t-36 38t-40.5 15.5h-766q-37 0 -71 16.5t-59.5 44t-42 62.5t-16.5 70zM55 954q0 -23 12.5 -50t33 -52t45 -41t47.5 -16h782q2 0 25.5 -11.5t35.5 -17.5q37 -20 55.5 -48t27.5 -61.5t10 -71.5t1 -75 q0 -35 -23.5 -78t-53.5 -63q-6 -4 -18.5 -10.5t-25 -12.5t-22.5 -11t-12 -5h-782q-12 0 -30 -9.5t-35 -22.5t-28.5 -28.5t-11.5 -29.5t11.5 -29.5t26.5 -28t33.5 -20.5t33.5 -8h1204q14 0 34.5 12t39 28.5t33 36t14.5 35.5l8 559q0 23 -12.5 48.5t-33 48t-44 38t-47.5 15.5 h-998q-2 0 -25.5 12t-35.5 19q-55 31 -74.5 85t-19.5 113q0 63 17 117.5t77 89.5q12 6 34.5 17.5t26.5 11.5h1006q12 0 28.5 10t32 23.5t25.5 29t10 27.5q0 16 -10 31.5t-26.5 28t-35 19.5t-32.5 7h-1196q-27 0 -51.5 -15.5t-44 -38t-31 -49t-11.5 -51.5v-508z" />
<glyph unicode="6" horiz-adv-x="1581" d="M20 197v1265q0 29 12.5 61.5t33 61.5t49 47.5t61.5 18.5h1229q12 0 31.5 -8.5t40 -20.5t35 -27.5t14.5 -29.5v-172q0 -18 -18.5 -36t-44 -31t-52.5 -22.5t-41 -9.5h-979q-18 0 -37.5 -15t-37 -36.5t-27.5 -44.5t-10 -39q0 -23 11 -49.5t29.5 -49t42 -36.5t46.5 -14h997 q23 0 46.5 -14.5t44 -36t35.5 -46t21 -45.5v-65t1 -101.5t2 -118t2.5 -117.5t2.5 -100t1 -65v-70q0 -41 -12.5 -80.5t-36 -71.5t-59.5 -51.5t-83 -19.5h-1161q-37 0 -71 15.5t-60.5 42t-42 60.5t-15.5 71zM55 309q0 -25 12.5 -52.5t32 -50t44 -37.5t49.5 -15h1204 q14 0 34.5 12t39 28.5t33 36t14.5 35.5l8 559q0 23 -12.5 48.5t-33 48t-44 38t-47.5 15.5h-998q-2 0 -25.5 12t-35.5 19q-55 31 -74.5 85t-19.5 113q0 63 17 117.5t77 89.5q12 6 34.5 17.5t26.5 11.5h1006q12 0 28.5 10t32 23.5t25.5 29t10 27.5q0 16 -10 31.5t-26.5 28 t-35 19.5t-32.5 7h-1196q-27 0 -51.5 -15.5t-44 -38t-31 -49t-11.5 -51.5v-1153zM236 559q0 78 26.5 134.5t102.5 88.5q4 2 14 5.5t12 3.5h799q4 0 13 -3.5t19.5 -8.5t18.5 -9t10 -4q37 -20 55.5 -49t27.5 -61.5t10.5 -69.5t1.5 -76q0 -29 -13.5 -58.5t-35 -56t-50 -43 t-57.5 -16.5h-799q-41 0 -70.5 23.5t-48 57.5t-27.5 72.5t-9 69.5zM279 514q0 -25 10 -50.5t28.5 -47t42 -34.5t48.5 -13h774q20 0 42.5 13t39 33.5t28 45t11.5 45.5q0 20 -8.5 43.5t-24 45t-36 36t-44.5 14.5h-799q-23 0 -42 -14.5t-35.5 -33.5t-25.5 -42t-9 -41z" />
<glyph unicode="7" horiz-adv-x="1546" d="M20 1393v172q0 14 14.5 29.5t35 27.5t40 20.5t31.5 8.5h1229q25 0 49.5 -13.5t44 -34t33.5 -45t21 -45.5v-141q0 -94 1 -214t2 -251t2 -250.5t2 -215t1 -140.5v-72q0 -106 -64.5 -163.5t-169.5 -57.5q-41 0 -83 11.5t-74.5 35t-53 58t-20.5 84.5v620q0 43 19.5 82t49 73 t62 63.5t57.5 56.5q16 16 17.5 28.5t1.5 30.5t-10.5 43t-25.5 47.5t-35.5 37.5t-41.5 15h-979q-14 0 -40.5 9.5t-52.5 22.5t-44.5 30.5t-18.5 36.5zM53 1530q0 -14 11.5 -29.5t29 -29t34.5 -22.5t30 -9h997q2 0 25.5 -11.5t36.5 -19.5q37 -18 55 -47t27.5 -61.5t10.5 -70.5 t1 -75q0 -25 -13.5 -56.5t-29.5 -49.5q-8 -10 -29.5 -32t-44.5 -46.5t-44.5 -47t-29.5 -30.5q-10 -14 -17 -35.5t-7 -40.5v-508q0 -25 12 -52.5t31.5 -50t44 -37.5t49.5 -15h129q14 0 34.5 12t40 28.5t33 36t13.5 35.5l8 1204q0 25 -12.5 50.5t-32 47t-44 35t-48.5 13.5 h-1196q-14 0 -33 -8.5t-34 -20.5t-26.5 -27.5t-11.5 -29.5z" />
<glyph unicode="8" horiz-adv-x="1581" d="M20 197v620q0 43 19.5 82t49.5 73t62.5 63.5t57.5 56.5l22 34v336q0 27 13.5 60.5t35 61.5t51 47.5t60.5 19.5h799q20 0 46 -13.5t49.5 -34t39.5 -45t16 -45.5v-344q0 -2 8.5 -24.5t12.5 -34.5l5 -10t3 -8q20 -20 48 -45t54.5 -53.5t48 -60.5t31.5 -65v-65t1 -101.5 t2 -118t2.5 -117.5t2.5 -100t1 -65v-70q0 -41 -12.5 -80.5t-36 -71.5t-59.5 -51.5t-83 -19.5h-1161q-37 0 -71 15.5t-60.5 42t-42 60.5t-15.5 71zM55 309q0 -25 12.5 -52.5t32 -50t44 -37.5t49.5 -15h1204q14 0 34.5 12t39 28.5t33 36t14.5 35.5l8 559q0 14 -9.5 36 t-17.5 34q-8 8 -27.5 28.5t-41 43t-41 44t-27.5 29.5q-23 23 -37 55.5t-14 65.5v309q0 25 -12.5 50.5t-32 47t-44 35t-48.5 13.5h-766q-27 0 -51.5 -15.5t-44 -38t-31 -49t-11.5 -51.5v-309q0 -25 -13 -55.5t-30 -48.5q-8 -8 -29.5 -31t-44 -47.5t-44 -46l-29.5 -29.5 q-10 -16 -17.5 -37.5t-7.5 -40.5v-508zM236 559q0 78 26.5 134.5t102.5 88.5q4 2 14 5.5t12 3.5h584q4 0 13 -3.5t19.5 -8.5t18.5 -9t10 -4q37 -20 55.5 -49t27.5 -61.5t10 -69.5t1 -76q0 -29 -13 -58.5t-34.5 -56t-50 -43t-57.5 -16.5h-584q-41 0 -70.5 23.5t-48 57.5 t-27.5 72.5t-9 69.5zM279 514q0 -25 10 -50.5t28.5 -47t42 -34.5t48.5 -13h559q20 0 42.5 13t39 33.5t27.5 45t11 45.5q0 20 -8 43.5t-23.5 45t-36 36t-44.5 14.5h-584q-23 0 -42 -14.5t-35.5 -33.5t-25.5 -42t-9 -41zM451 1204q0 78 26.5 134.5t102.5 88.5q4 2 14 5.5 t12 3.5h369q4 0 13 -3t19.5 -8.5t18.5 -9.5t10 -4q37 -20 55.5 -49t27.5 -61.5t10 -69.5t1 -76q0 -29 -13 -58.5t-34.5 -56t-50 -43t-57.5 -16.5h-369q-41 0 -70.5 23.5t-48 57.5t-27.5 72.5t-9 69.5zM494 1159q0 -25 10 -50.5t28.5 -47t42 -34.5t48.5 -13h344q20 0 42.5 13 t39 33.5t27.5 45t11 45.5q0 20 -8 44t-23.5 45.5t-36 35.5t-44.5 14h-369q-23 0 -42 -14t-35.5 -33.5t-25.5 -42.5t-9 -41z" />
<glyph unicode="9" horiz-adv-x="1581" d="M20 842v620q0 29 12.5 61.5t33 61.5t49 47.5t61.5 18.5h1229q25 0 49.5 -13.5t44 -34t33.5 -45.5t20 -45v-141q0 -94 1 -214t2 -251t2.5 -250.5t2.5 -215t1 -140.5v-72q0 -106 -64.5 -163.5t-169.5 -57.5q-41 0 -83 11.5t-75.5 35t-55 59.5t-21.5 83v335q0 14 -12.5 35 t-31 39.5t-39 30.5t-34.5 12h-766q-37 0 -71 16.5t-59.5 44t-42 62.5t-16.5 70zM55 954q0 -23 13.5 -50t33 -52t44 -41t47.5 -16h782q16 0 41.5 -15.5t50.5 -38t42 -46t17 -42.5v-344q0 -25 13.5 -51.5t34 -50t45 -38.5t49.5 -15h129q14 0 35.5 11t40 28.5t32 37t13.5 35.5 l8 1204q0 25 -12.5 50.5t-32 47t-44 35t-48.5 13.5h-1196q-27 0 -51.5 -15.5t-44 -38t-31 -49t-11.5 -51.5v-508zM236 1204q0 78 26.5 134.5t102.5 88.5q4 2 14 5.5t12 3.5h799q4 0 13 -3t19.5 -8.5t18.5 -9.5t10 -4q37 -20 55.5 -49t27.5 -61.5t10.5 -69.5t1.5 -76 q0 -29 -13.5 -58.5t-35 -56t-50 -43t-57.5 -16.5h-799q-41 0 -70.5 23.5t-48 57.5t-27.5 72.5t-9 69.5zM279 1159q0 -25 10 -50.5t28.5 -47t42 -34.5t48.5 -13h774q20 0 42.5 13t39 33.5t28 45t11.5 45.5q0 20 -8.5 44t-24 45.5t-36 35.5t-44.5 14h-799q-23 0 -42 -14 t-35.5 -33.5t-25.5 -42.5t-9 -41z" />
<glyph unicode=":" horiz-adv-x="446" d="M20 113v153q0 2 3.5 8.5t5.5 10.5q25 27 45 42t41.5 23t47 10t60.5 2h74q12 -4 34.5 -12t43 -21.5t36 -29.5t15.5 -33v-153q0 -31 -24.5 -51.5t-57.5 -32t-67.5 -16.5t-53.5 -5q-20 0 -54 5t-66.5 16.5t-57.5 32t-25 51.5zM20 1405v156q0 2 3.5 7t5.5 9q25 27 45 42 t41.5 23.5t47 10.5t60.5 2h74q12 -4 34.5 -12.5t43 -21.5t36 -28.5t15.5 -31.5v-156q0 -31 -24.5 -51.5t-57.5 -31.5t-67.5 -16.5t-53.5 -5.5q-20 0 -54 5.5t-66.5 16.5t-57.5 31.5t-25 51.5zM55 242q0 -16 11.5 -31.5t27 -28t32.5 -19.5t32 -7h129q14 0 32.5 7t34 19.5 t26.5 27.5t11 32q0 14 -11 29.5t-26.5 27.5t-34 20.5t-32.5 8.5h-129q-14 0 -31.5 -8.5t-33 -20.5t-27 -27.5t-11.5 -29.5zM55 1534q0 -16 11.5 -31.5t27 -28t32.5 -19.5t32 -7h129q14 0 32.5 7t34 19.5t26.5 28t11 31.5q0 14 -11 29.5t-26.5 28t-34 20.5t-32.5 8h-129 q-14 0 -31.5 -8t-33 -20.5t-27 -28t-11.5 -29.5z" />
<glyph unicode=";" horiz-adv-x="575" d="M20 96v180q0 14 14.5 30t35 28t40 20t31.5 8h258q25 0 52.5 -15t50 -37.5t38 -50.5t15.5 -52v-473q0 -23 -11.5 -45.5t-27.5 -39t-39 -26.5t-43 -10q-61 0 -83.5 38t-31 90t-12.5 106.5t-28 84.5q-18 23 -38 40.5t-48 27.5q-31 10 -63 15t-58 28l-14.5 14.5l-16.5 16.5 t-21 22zM53 242q0 -2 1 -8.5t1 -8.5q27 -33 59.5 -49t65.5 -28.5t64.5 -29t60.5 -48.5q14 -16 21.5 -46t11.5 -66t8 -73t14.5 -66.5t26.5 -49t47 -19.5q14 0 29.5 11.5t28 26.5t20.5 33.5t8 33.5v344q0 20 -12 42.5t-31.5 42t-42 32t-43.5 12.5h-241q-12 0 -29 -8.5 t-32 -21.5t-25.5 -28.5t-10.5 -27.5zM123 1405v156q0 2 3 8t7 8q23 27 43.5 42t42 23.5t47 10.5t60.5 2h73q12 -4 35 -12.5t43.5 -21.5t35.5 -28.5t15 -31.5v-156q0 -31 -24.5 -51.5t-57 -31.5t-66.5 -16.5t-54 -5.5q-18 0 -53 5.5t-68 16.5t-57.5 31.5t-24.5 51.5z M158 1534q0 -16 11 -31.5t26.5 -28t34 -19.5t32.5 -7h129q14 0 31.5 7t34 19.5t28 28t11.5 31.5q0 14 -11.5 29.5t-28 28t-33.5 20.5t-32 8h-129q-14 0 -32.5 -8t-34 -20.5t-26.5 -28t-11 -29.5z" />
<glyph unicode="&#x3c;" horiz-adv-x="876" d="M20 741v189l680 680q14 14 26.5 16t29.5 2q29 0 56.5 -16.5t35.5 -44.5q0 -6 1 -21.5t2 -34t3 -35t2 -22.5v-18q0 -14 -4 -30.5t-14 -27.5l-533 -542l543 -551v-183q0 -33 -34 -46t-58 -13q-10 0 -23.5 -1t-23.5 9zM55 870l688 -690h27q4 0 20.5 16.5t22.5 26.5 q0 2 1 8.5t1 10.5t-2 16l-569 578q-10 10 -9 24t1 27q0 12 -1.5 26.5t9.5 24.5q569 578 570 584t1 10t-1 10t-1 8q-6 10 -22.5 26.5t-20.5 16.5h-27l-688 -690v-33z" />
<glyph unicode="=" horiz-adv-x="1513" d="M20 532v173q0 14 14.5 29.5t35 27.5t40 20.5t31.5 8.5h1231q12 0 31.5 -8.5t40 -20.5t35 -27.5t14.5 -29.5v-173q0 -18 -18.5 -35.5t-44 -30.5t-52 -20.5t-41.5 -7.5h-1161q-6 0 -26.5 3t-26.5 5q-10 4 -27.5 12.5t-34 19.5t-29 25.5t-12.5 28.5zM20 963v172 q0 14 14.5 29.5t35 28.5t40 21.5t31.5 8.5h1231q12 0 31.5 -8.5t40 -21.5t35 -28.5t14.5 -29.5v-172q0 -18 -18.5 -36t-44 -31t-52 -20.5t-41.5 -7.5h-1161q-6 0 -26.5 3.5t-26.5 5.5q-10 4 -27.5 12t-34 19.5t-29 25.5t-12.5 29zM53 662q0 -7 2 -9q10 -16 39 -42.5 t56 -26.5h1206q14 0 32.5 8t34 20.5t26.5 27.5t11 30q0 14 -11 29.5t-26.5 28.5t-34 21.5t-32.5 8.5h-1206q-12 0 -29 -9.5t-32 -22.5t-25.5 -28.5t-10.5 -27.5v-8zM53 1092q0 -5 2 -9q10 -16 39 -41.5t56 -25.5h1206q14 0 32.5 8t34 20.5t26.5 27.5t11 30q0 14 -11 29.5 t-26.5 27.5t-34 20.5t-32.5 8.5h-1206q-12 0 -29 -9.5t-32 -21.5t-25.5 -27.5t-10.5 -27.5v-10z" />
<glyph unicode="&#x3e;" horiz-adv-x="866" d="M20 94v189l541 551l-541 550v181q0 14 10.5 25.5t25 19.5t29.5 12t26 4q16 0 29.5 -3t25.5 -15l680 -680v-189l-688 -688q-10 -10 -23.5 -9t-23.5 1q-14 0 -25.5 -1t-22 9t-27 25.5t-16.5 17.5zM51 242q0 -4 1 -10.5t3 -8.5q4 -10 21.5 -26.5t21.5 -16.5h25l688 688v35 l-688 686h-25q-4 0 -21.5 -16.5t-21.5 -26.5q-2 0 -3 -7t-1 -11t1 -9.5t3 -7.5l568 -575q10 -10 9 -25.5t-1 -27.5v-33q0 -8 -17 -25l-559 -567q-2 -2 -3 -7t-1 -9z" />
<glyph unicode="?" horiz-adv-x="1546" d="M20 1393v172q0 14 14.5 29.5t35 27.5t40 20.5t31.5 8.5h1014q18 0 46 -15.5t40 -27.5l242 -242q25 -25 35 -58.5t11 -69.5t-1 -73t-2 -67q0 -35 -4 -76t-31 -68l-266 -266q-29 -29 -65 -33t-75 -4q-37 0 -72.5 -3t-64.5 -30l-153 -145q-29 -29 -70 -32t-76 -3 q-74 0 -120 20.5t-70.5 57.5t-33.5 89t-9 118q0 37 1 74t10 70.5t27.5 62t55.5 49.5q12 8 34.5 19.5t26.5 11.5h576q20 0 41.5 15t39 36.5t29 45t11.5 42.5q0 18 -9.5 44t-25.5 48.5t-36.5 37.5t-41.5 15h-979q-14 0 -40.5 9.5t-52.5 22.5t-44.5 30.5t-18.5 36.5zM53 1530 q0 -14 11.5 -29.5t29 -29t34.5 -22.5t30 -9h997q2 0 25.5 -11.5t36.5 -19.5q37 -20 55 -49t27.5 -62.5t10.5 -71.5t1 -75q0 -35 -24.5 -77t-53.5 -60q-6 -4 -18.5 -10.5t-24.5 -12.5t-22.5 -11t-12.5 -5h-567q-4 0 -26.5 -11.5t-33.5 -17.5q-47 -35 -62 -75t-15 -93 q0 -29 8 -63.5t24.5 -63t42 -48t62.5 -19.5h129l51 26q8 8 27.5 26.5t41 39t41 39t27.5 24.5q27 25 54.5 36t57.5 16.5t61.5 6.5t68.5 1l51 26l258 250l27 51q0 2 2 17.5t3 36t2 42t1 33.5q0 10 -9 35t-18 33l-247 258q-12 12 -39 23.5t-39 11.5h-981q-14 0 -33 -8.5 t-34 -20.5t-26.5 -27.5t-11.5 -29.5zM451 102v172q0 14 14 29.5t34.5 28t40 20.5t31.5 8h154q12 0 31.5 -8t40 -20.5t35 -27.5t14.5 -30v-172q0 -2 -3 -8t-5 -8q-41 -47 -85.5 -62.5t-103.5 -15.5t-104 15.5t-86 62.5q-2 2 -5 8t-3 8zM483 240q0 -14 11.5 -29.5t27 -28 t33.5 -20.5t33 -8h129q12 0 28.5 8t32 21.5t25.5 28.5t10 28q0 29 -17.5 46t-43 26.5t-53 12.5t-48.5 3q-18 0 -47 -3t-55.5 -12.5t-46 -26.5t-19.5 -46z" />
<glyph unicode="@" d="M20 412v843q0 25 12.5 60t30.5 53l242 240q12 14 39 28.5t47 14.5h799q20 0 47 -14.5t39 -28.5l242 -240q10 -10 22 -32.5t12 -37.5v-723q0 -20 -11 -39.5t-28.5 -34t-38 -22.5t-38.5 -8q-16 0 -29.5 7t-26 15.5t-25 15.5t-26.5 7q-18 0 -36.5 -12t-38 -26.5t-43 -27 t-54.5 -12.5h-301q-37 0 -71.5 16.5t-60.5 42t-42 59.5t-16 71v413q0 27 14 58.5t36.5 59.5t50.5 47.5t54 19.5q352 0 360.5 4t17.5 8t18.5 9t15.5 9q2 2 5 5.5t5 3.5l-53 26h-799q-25 0 -45 -14t-35.5 -35.5t-23.5 -45.5t-8 -44q0 -18 1 -30.5t15 -28.5q8 -8 29.5 -31 t44 -47.5t44 -46l29.5 -29.5q2 -4 9.5 -14.5t13.5 -21.5t11 -21.5t5 -12.5v-344q0 -25 13.5 -52.5t34 -51t45 -39.5t49.5 -16h782q2 0 25.5 -11.5t35.5 -17.5q14 -8 37 -25.5t23 -36.5v-172q0 -18 -18.5 -35.5t-43 -30.5t-51.5 -20.5t-41 -7.5h-948q-20 0 -53 9.5t-49 25.5 l-267 266q-16 16 -25.5 49t-9.5 54zM55 524q0 -12 7.5 -39.5t17.5 -38.5l276 -274l52 -18h981q14 0 32.5 8t33.5 20.5t26.5 27.5t11.5 30q0 14 -11.5 29.5t-28.5 29.5t-34.5 23.5t-29.5 9.5h-783q-27 0 -54.5 19.5t-51 48t-39 60.5t-15.5 56v344l-22 35q-8 8 -28.5 29.5 t-44 46t-44 47t-28.5 31.5q-29 33 -36 75.5t-7 83.5q0 33 9 72t27.5 74t48 58.5t70.5 23.5h799q25 0 46 -11.5t38.5 -29t28 -39t10.5 -43.5q0 -18 -11.5 -40t-30 -40.5t-40 -29.5t-41.5 -11h-361q-20 0 -42.5 -17.5t-42 -42t-32 -52t-12.5 -48.5v-293q0 -25 11.5 -52.5 t31 -51t44 -37.5t51.5 -14h336q23 0 41 11t35.5 24.5t37 24.5t43.5 11q16 0 29.5 -7t25 -16t22.5 -16.5t28 -7.5q2 0 6 1t6 1q8 4 27.5 24.5t25.5 27.5q4 4 10.5 17t6.5 17v611l-285 284q-2 4 -26.5 15.5t-32.5 11.5h-775l-51 -27l-268 -266q-10 -10 -17.5 -37.5t-7.5 -40.5 v-723zM881 891q0 59 17 106t69 86q8 6 27.5 16.5t23.5 10.5h190q29 0 52.5 -18.5t41 -44t27.5 -55t10 -54.5q0 -41 -17 -74t-43 -61.5t-56.5 -54t-57.5 -52.5q-18 -16 -48 -29.5t-56 -13.5q-47 0 -81 22.5t-56.5 56.5t-32.5 76t-10 83zM924 836q0 -53 41 -96.5t94 -43.5 q18 0 32.5 1t30.5 16l164 164v18q0 2 -20.5 21.5t-32.5 29.5q-4 4 -27.5 15.5t-31.5 11.5h-130q-23 0 -44 -14.5t-37.5 -35t-27.5 -44t-11 -43.5z" />
<glyph unicode="A" d="M20 145v508q0 14 12.5 37t22.5 33q8 8 28.5 29.5t43.5 46t44.5 47.5t29.5 31q8 12 19 37.5t11 39.5v344q0 2 5.5 12.5t11.5 21.5t12 21.5t10 14.5l240 240q14 14 41 28.5t45 14.5h371q18 0 45.5 -14.5t40.5 -28.5l241 -240q8 -8 16.5 -23.5t15.5 -33t11 -32.5t4 -24v-344 l21 -34q8 -8 29.5 -31t44 -47.5t44 -46l29.5 -29.5q18 -20 30.5 -53t12.5 -60v-422q0 -25 -9 -51t-26.5 -47.5t-40 -35t-49.5 -13.5q-18 0 -38.5 9t-39 24.5t-30.5 34t-12 36.5v353q0 18 -11.5 43.5t-30 49t-41 39t-42.5 15.5h-586q-14 0 -33.5 -12t-38 -29.5t-31 -37 t-12.5 -34.5v-344q0 -16 -16 -50t-23 -44q-39 -53 -88 -69.5t-110 -16.5t-109.5 16.5t-87.5 69.5q-6 8 -16.5 27.5t-10.5 23.5zM55 266q0 -16 13.5 -36.5t34 -37t42 -27.5t39.5 -11h129q23 0 46.5 16t43 39.5t31.5 50.5t12 49v344q0 20 16.5 45t39 45.5t49.5 34t45 13.5h586 q29 0 57.5 -18.5t51 -45.5t36.5 -58.5t14 -58.5v-344q0 -2 8.5 -15t12.5 -20l14 -14t16.5 -16t14.5 -14.5t8 -6.5h25q4 0 22.5 20.5t28.5 30.5q10 14 18.5 38t8.5 40v293q0 18 -8.5 40t-18.5 38l-29.5 29.5t-44 46t-43 47t-28.5 31.5q-4 4 -10.5 14t-12.5 21.5t-11 20.5 t-5 13v344q0 4 -3.5 15.5t-8.5 23.5t-10 23.5t-9 15.5l-275 274l-51 19h-336q-8 0 -32.5 -11.5t-28.5 -15.5l-287 -288v-357q0 -20 -15 -57t-32 -55q-8 -8 -29.5 -31t-44 -47.5t-44 -46l-29.5 -29.5l-17 -35v-379zM451 1118v180q0 23 15 47.5t37.5 44t47 33t45.5 13.5h371 q41 0 70.5 -23.5t48 -58.5t27.5 -74t9 -72t-9 -71.5t-27.5 -73.5t-48 -58.5t-70.5 -23.5h-371q-20 0 -45 13.5t-47.5 34t-37.5 44t-15 45.5zM483 1153q0 -23 11.5 -47.5t30 -44t42 -32.5t47.5 -13h344q20 0 43 13t39.5 33.5t27.5 44t11 44.5q0 20 -8 44t-23.5 45.5t-36 35.5 t-44.5 14h-371q-23 0 -43.5 -14t-35.5 -34.5t-24.5 -45.5t-9.5 -43z" />
<glyph unicode="B" d="M20 145v1368q0 23 15.5 47.5t38 44t47 33t45.5 13.5h801q18 0 45.5 -14.5t40.5 -28.5l241 -240q20 -20 30.5 -52t14.5 -67t5.5 -67.5t1.5 -55.5l16 -34q8 -8 29.5 -31t44 -47.5t44 -46l29.5 -29.5q18 -20 30.5 -53t12.5 -60v-422q0 -18 -11 -49.5t-23 -44.5l-267 -266 q-16 -16 -49 -25.5t-55 -9.5h-946q-25 0 -55.5 11.5t-58.5 30t-47.5 43t-19.5 52.5zM55 266q0 -16 13.5 -36.5t34 -37t42 -27.5t39.5 -11h990l51 26l266 266q10 10 18.5 38t8.5 40v293q0 18 -8.5 40t-18.5 38l-29.5 29.5t-44 46t-43 47t-28.5 31.5q-6 6 -14.5 19t-12.5 24 q-10 25 -10 55v65q0 33 -6.5 63t-26.5 50l-275 274l-51 19h-766q-18 0 -39.5 -11.5t-42 -28.5t-34 -36.5t-13.5 -36.5v-1239zM236 1118v180q0 23 15 47.5t37.5 44t47 33t45.5 13.5h586q41 0 70.5 -23.5t48 -58.5t27.5 -74t9 -72t-9 -71.5t-27.5 -73.5t-48 -58.5t-70.5 -23.5 h-586q-20 0 -45 13.5t-47.5 34t-37.5 44t-15 45.5zM268 1153q0 -23 11.5 -47.5t30 -44t42 -32.5t47.5 -13h559q20 0 43 13t39.5 33.5t27.5 44t11 44.5q0 20 -8 44t-23.5 45.5t-36 35.5t-44.5 14h-586q-23 0 -43.5 -14t-35.5 -34.5t-24.5 -45.5t-9.5 -43zM451 473v180 q0 20 15 45t37.5 45.5t47 34t45.5 13.5h586q41 0 70.5 -24t48 -58.5t27.5 -73.5t9 -72t-9 -71.5t-27.5 -73.5t-48 -58.5t-70.5 -23.5h-586q-20 0 -45 13t-47.5 32.5t-37.5 44.5t-15 47zM483 508q0 -23 11.5 -47.5t30 -45t42 -33.5t47.5 -13h560q20 0 42.5 14t39 34.5 t27.5 44t11 44.5q0 20 -8 43.5t-23.5 45t-36 36t-44.5 14.5h-586q-23 0 -43.5 -14.5t-35.5 -35t-24.5 -45t-9.5 -42.5z" />
<glyph unicode="C" horiz-adv-x="1538" d="M20 360v938q0 14 12.5 37t22.5 33l240 240q14 14 40.5 28.5t45.5 14.5h801q18 0 45.5 -14.5t40.5 -28.5l250 -250v-180q0 -16 -10.5 -27.5t-24 -20t-28.5 -11.5t-28 -3h-24t-23 10q-8 8 -29.5 28t-44 41.5t-44 40.5t-29.5 28q-8 6 -24.5 16t-26.5 10h-801 q-23 0 -43.5 -14t-35.5 -34.5t-24.5 -45.5t-9.5 -43t2 -31.5t17 -29.5q8 -8 29.5 -31t44 -47.5t44 -46l29.5 -29.5q16 -18 31.5 -55t15.5 -58v-344q0 -12 15.5 -31.5t37 -38t44 -30.5t36.5 -12h560l51 26l145 137q14 14 27.5 16.5t29.5 2.5q10 0 25.5 -4t30 -12.5t25 -19.5 t10.5 -26v-180l-267 -266q-16 -16 -49 -25.5t-55 -9.5h-731q-23 0 -54.5 9.5t-48.5 25.5l-266 266zM55 465l283 -285q4 -4 28.5 -15t32.5 -11h775l51 26q258 258 259 264.5t1 10.5t-1 10t-1 8q-6 10 -22.5 26.5t-20.5 16.5h-27l-28.5 -28.5t-43 -42t-44 -41t-29.5 -25.5 q-14 -14 -40 -28.5t-46 -14.5h-586q-18 0 -45 13t-49.5 33.5t-39 45.5t-16.5 45v344q0 12 -11 39t-19 39l-29.5 29.5t-44.5 46t-43 47t-29 31.5q-10 10 -22 31.5t-12 37.5v180q0 20 15 45t37.5 45.5t47 34t45.5 13.5h801q2 0 12 -3t14 -6q61 -29 109.5 -76.5t95.5 -95.5h27 q4 0 20.5 16.5t22.5 26.5q0 2 1 8.5t1 10.5t-1 9t-1 7l-266 266l-52 17h-774l-53 -25l-283 -284v-842z" />
<glyph unicode="D" d="M20 145v1368q0 23 15.5 47.5t38 44t47 33t45.5 13.5h1016q18 0 45.5 -14.5t40.5 -28.5l241 -240q18 -18 30.5 -53t12.5 -60v-852q0 -18 -11 -49.5t-23 -44.5l-267 -266q-16 -16 -49 -25.5t-55 -9.5h-946q-6 0 -25.5 3t-25.5 5q-18 6 -40 19.5t-42.5 30t-34 37t-13.5 42.5 zM55 266q0 -16 13.5 -36.5t34 -37t42 -27.5t39.5 -11h990l51 26l266 266q10 10 18.5 38t8.5 40v723q0 12 -8.5 40t-18.5 38l-274 274l-52 19h-981q-18 0 -39.5 -11.5t-42 -28.5t-34 -36.5t-13.5 -36.5v-1239zM236 1118v180q0 23 15 47.5t37.5 44t47 33t45.5 13.5h801 q31 0 58.5 -17.5t49 -45t34.5 -59.5t13 -59v-739q0 -29 -13 -59.5t-34.5 -58t-49.5 -45t-58 -17.5h-586q-18 0 -45 13t-49.5 33.5t-39 45.5t-16.5 45v344q0 14 -11 40t-19 38l-29.5 29.5t-44.5 46t-43 47t-29 31.5q-10 10 -22 32.5t-12 36.5zM268 1153q0 -18 2.5 -31.5 t16.5 -29.5q8 -8 29.5 -31t44 -47.5t44 -46l29.5 -29.5q16 -18 31.5 -55t15.5 -58v-344q0 -12 15.5 -31.5t37 -38t44 -30.5t36.5 -12h560q25 0 47 16t40.5 40t30 50.5t11.5 48.5v621q0 20 -10.5 44.5t-28 47.5t-39 38t-43.5 15h-801q-23 0 -43.5 -14t-35.5 -34.5 t-24.5 -45.5t-9.5 -43z" />
<glyph unicode="E" horiz-adv-x="1538" d="M20 360v938q0 14 12.5 37t22.5 33l240 240q14 14 40.5 28.5t45.5 14.5h1016q12 0 31.5 -8.5t40 -20.5t35 -27.5t14.5 -29.5v-172q0 -18 -18.5 -36t-44 -31t-52.5 -22.5t-41 -9.5h-981q-18 0 -38.5 -15t-37 -37.5t-27 -47.5t-10.5 -41q0 -20 12.5 -46t32 -47.5t42 -35.5 t44.5 -14h998q2 0 24.5 -11.5t34.5 -17.5q14 -8 38 -25.5t24 -35.5v-172q0 -18 -18.5 -36t-44 -31t-52.5 -22.5t-41 -9.5h-766q-18 0 -38.5 -15.5t-37 -38t-27 -47t-10.5 -40.5q0 -20 12.5 -46t32 -47.5t42 -35.5t44.5 -14h783q2 0 24.5 -11.5t34.5 -17.5q14 -8 38 -25.5 t24 -36.5v-172q0 -18 -18.5 -35.5t-44 -30.5t-52.5 -20.5t-41 -7.5h-946q-23 0 -54.5 9.5t-48.5 25.5l-266 266zM55 465l283 -285q4 -4 28.5 -15t32.5 -11h990q12 0 28.5 9t31.5 21.5t25.5 27.5t10.5 28q0 14 -11.5 29.5t-29 28.5t-34.5 22.5t-30 9.5h-784q-16 0 -42 15 t-48.5 36.5t-38.5 47.5t-16 44v180q0 18 16 43t38.5 46.5t48.5 37t42 15.5h793q12 0 28.5 10t31.5 23.5t25.5 28.5t10.5 28q0 14 -11.5 29.5t-29 28.5t-34.5 22.5t-30 9.5h-999q-16 0 -42 15.5t-48.5 37t-38.5 47t-16 43.5v180q0 18 16 43t38.5 46.5t48.5 37t42 15.5h1008 q12 0 28.5 10t31.5 23.5t25.5 29t10.5 27.5q0 14 -11.5 29.5t-26.5 27.5t-33.5 20.5t-33.5 8.5h-989l-53 -25l-283 -284v-842z" />
<glyph unicode="F" horiz-adv-x="1538" d="M20 145v1153q0 14 12.5 37t22.5 33l240 240q14 14 40.5 28.5t45.5 14.5h1016q12 0 31.5 -8.5t40 -20.5t35 -27.5t14.5 -29.5v-172q0 -18 -18.5 -36t-44 -31t-52.5 -22.5t-41 -9.5h-981q-18 0 -38.5 -15t-37 -37.5t-27 -47.5t-10.5 -41q0 -20 12.5 -46t32 -47.5t42 -35.5 t44.5 -14h998q2 0 24.5 -11.5t34.5 -17.5q14 -8 38 -25.5t24 -35.5v-172q0 -18 -18.5 -36t-44 -31t-52.5 -22.5t-41 -9.5h-766q-12 0 -31.5 -14t-38 -32.5t-32 -38t-13.5 -32.5v-344q0 -16 -16 -50t-23 -44q-39 -53 -88 -69.5t-110 -16.5t-109.5 16.5t-87.5 69.5 q-6 8 -16.5 27.5t-10.5 23.5zM55 266q0 -16 13.5 -36.5t34 -37t42 -27.5t39.5 -11h129q23 0 46.5 16t43 39.5t31.5 50.5t12 49v344q0 18 17.5 42t42 46.5t49.5 38t41 15.5h793q12 0 28.5 10t31.5 23.5t25.5 28.5t10.5 28q0 14 -11.5 29.5t-29 28.5t-34.5 22.5t-30 9.5h-999 q-16 0 -42 15.5t-48.5 37t-38.5 47t-16 43.5v180q0 18 16 43t38.5 46.5t48.5 37t42 15.5h1008q12 0 28.5 10t31.5 23.5t25.5 29t10.5 27.5q0 4 -1 10t-1 8q-16 23 -44 45.5t-59 22.5h-989l-53 -25l-283 -284v-1041z" />
<glyph unicode="G" d="M20 360v938q0 14 12.5 37t22.5 33l240 240q14 14 40.5 28.5t45.5 14.5h1016q12 0 31.5 -8.5t40 -20.5t35 -27.5t14.5 -29.5v-172q0 -18 -18.5 -36t-44 -31t-52.5 -22.5t-41 -9.5h-981q-18 0 -38.5 -15t-37 -37.5t-27 -47.5t-10.5 -41q0 -18 2 -31.5t17 -29.5 q8 -8 29.5 -31t44 -47.5t44 -46l29.5 -29.5q16 -18 31.5 -55t15.5 -58v-344q0 -12 15.5 -31.5t37 -38t44 -30.5t36.5 -12h560q20 0 42.5 14t39 34.5t27.5 44t11 44.5q0 66 -29.5 93.5t-73.5 37.5t-93 11t-88 14q-10 4 -27.5 12t-34 19.5t-29 25.5t-12.5 29v172 q0 14 14.5 29.5t35 27.5t41 20.5t30.5 8.5h369q31 0 58.5 -17.5t49 -45.5t34.5 -59.5t13 -58.5v-413q0 -20 -9 -53t-25 -50l-267 -266q-16 -16 -49 -25.5t-55 -9.5h-731q-23 0 -54.5 9.5t-48.5 25.5l-266 266zM55 465l283 -285q4 -4 28.5 -15t32.5 -11h775l51 26l266 266 q10 10 18.5 38t8.5 40v293q0 25 -11.5 52.5t-31 50t-44 38t-51.5 15.5h-336q-14 0 -32.5 -8.5t-34.5 -20.5t-27.5 -27.5t-11.5 -29.5t4 -19q23 -39 60.5 -53t81.5 -20.5t89.5 -10.5t81 -24.5t59 -65.5t23.5 -131q0 -33 -9 -71.5t-27.5 -73.5t-48 -58.5t-70.5 -23.5h-586 q-18 0 -45 13t-49.5 33.5t-39 45.5t-16.5 45v344q0 14 -11 40t-19 38l-29.5 29.5t-44.5 46t-43 47t-29 31.5q-10 10 -22 32.5t-12 36.5v180q0 18 16 43t38.5 46.5t48.5 37t42 15.5h1008q12 0 28.5 10t31.5 23.5t25.5 30t10.5 28.5q0 14 -11.5 29.5t-26.5 28t-33.5 20.5 t-33.5 8h-989l-53 -27l-283 -284v-842z" />
<glyph unicode="H" d="M20 145v1368q0 20 11.5 41t29 36.5t38 25.5t38.5 10q25 0 48.5 -15.5t42 -38t28.5 -50t10 -52.5v-344q0 -12 15.5 -31.5t37 -37t44 -29.5t36.5 -12h775q23 0 46 16.5t42.5 39t32 49t12.5 48.5v344q0 18 12 39t30.5 37.5t39 26.5t38.5 10q27 0 49.5 -14.5t40 -38t26.5 -51 t9 -52.5v-1282q0 -25 -9 -51t-26.5 -47.5t-40 -35t-49.5 -13.5q-18 0 -38.5 9t-39 24.5t-30.5 34t-12 36.5v353q0 18 -11.5 43.5t-30 49t-41 39t-42.5 15.5h-586q-14 0 -33.5 -12t-38 -29.5t-31 -37t-12.5 -34.5v-344q0 -16 -16 -50t-23 -44q-39 -53 -88 -69.5t-110 -16.5 t-109.5 16.5t-87.5 69.5q-6 8 -16.5 27.5t-10.5 23.5zM55 266q0 -16 13.5 -36.5t34 -37t42 -27.5t39.5 -11h129q23 0 46.5 16t43 39.5t31.5 50.5t12 49v344q0 20 16.5 45t39 45.5t49.5 34t45 13.5h586q29 0 57.5 -18.5t51 -45.5t36.5 -58.5t14 -58.5v-344q0 -2 8.5 -15 t12.5 -20l14 -14t16.5 -16t14.5 -14.5t8 -6.5h25q4 0 22.5 20.5t28.5 30.5q10 14 18.5 38t8.5 40v1153q0 16 -8.5 40t-18.5 38q-10 10 -28.5 30.5t-22.5 20.5h-25q-2 0 -8 -6t-14.5 -14t-16.5 -16.5t-14 -14.5q-4 -6 -12.5 -19.5t-8.5 -15.5v-344q0 -27 -14 -57.5t-36.5 -58 t-51.5 -46t-57 -18.5h-801q-18 0 -45 13.5t-49.5 34t-39 45t-16.5 44.5v344q0 6 -3 16.5t-8 22.5t-10 23.5t-9 15.5q-10 10 -28.5 30.5t-22.5 20.5h-27q-2 0 -21.5 -20.5t-29.5 -30.5q-4 -4 -10.5 -17.5t-6.5 -17.5v-1239z" />
<glyph unicode="I" horiz-adv-x="497" d="M20 164v1333q0 23 11.5 46.5t28 42t37.5 30.5t44 12q20 0 43 -12t41.5 -30.5t29.5 -42t11 -46.5v-352q0 -6 11.5 -29.5t19.5 -32.5l154 -161q8 -8 17 -34t9 -36v-688q0 -41 -23.5 -71t-58.5 -48t-74.5 -27.5t-72.5 -9.5q-31 0 -71 9.5t-74.5 27.5t-58.5 48t-24 71z M55 285q0 -20 12.5 -44t32 -43.5t42 -31.5t42.5 -12h129q20 0 43 12t42.5 31.5t31.5 43t12 44.5v559q0 10 -11 32.5t-15 26.5q-8 8 -29.5 30.5t-44.5 47.5t-43 46.5t-29 31.5q-10 10 -24.5 38.5t-14.5 39.5v352q0 12 -8 29.5t-21.5 35t-30 28.5t-30.5 11q-16 0 -31.5 -11 t-27.5 -26.5t-19.5 -34t-7.5 -32.5v-1204z" />
<glyph unicode="J" d="M20 360v293q0 20 11.5 40t29 36t38 26.5t38.5 10.5q49 0 76 -33t39 -79t15 -94t3 -79q4 -18 17.5 -37.5t32 -36t39 -27.5t40.5 -11h559q23 0 46.5 16t43 40t32 50.5t12.5 48.5v989q0 18 12 39t30.5 37.5t39 26.5t38.5 10q25 0 48.5 -15.5t42 -38t28.5 -50t10 -52.5v-344 l21 -34q8 -8 29.5 -31t44 -47.5t44 -46l29.5 -29.5q18 -20 30.5 -53t12.5 -60v-422q0 -18 -11 -49.5t-23 -44.5l-267 -266q-16 -16 -49 -25.5t-55 -9.5h-731q-23 0 -54.5 9.5t-48.5 25.5l-266 266zM55 465l283 -285q4 -4 28.5 -15t32.5 -11h775l51 26l266 266q10 10 18.5 38 t8.5 40v293q0 18 -8.5 40t-18.5 38l-29.5 29.5t-44 46t-43 47t-28.5 31.5q-4 4 -10.5 14t-12.5 21.5t-11 20.5t-5 13v344q0 6 -3.5 16.5t-8.5 22.5t-10 23.5t-9 15.5q-10 10 -28.5 30.5t-22.5 20.5h-25q-2 0 -8 -6t-14.5 -14t-16.5 -16.5t-14 -14.5q-4 -6 -12.5 -19.5 t-8.5 -15.5v-989q0 -27 -14 -58.5t-36.5 -58t-51.5 -45t-57 -18.5h-586q-8 0 -31.5 11t-27.5 13q-53 31 -67.5 71t-16.5 83t-4.5 86t-32.5 80q-10 10 -28.5 30.5t-22.5 20.5h-27q-2 0 -21.5 -20.5t-29.5 -30.5q-4 -4 -10.5 -17.5t-6.5 -17.5v-180z" />
<glyph unicode="K" d="M20 145v1368q0 20 11.5 41t29 36.5t38 25.5t38.5 10q25 0 48.5 -15.5t42 -38t28.5 -50t10 -52.5v-344q0 -12 15.5 -31.5t37 -37t44 -29.5t36.5 -12h129l52 24l577 568q12 14 25.5 16t29.5 2q10 0 25.5 -4t30 -12t25 -19.5t10.5 -25.5v-181l-361 -374h240q2 0 25.5 -11.5 t35.5 -17.5q4 -4 13.5 -10t11.5 -8l241 -240q18 -18 30.5 -53t12.5 -60v-422q0 -25 -9 -51t-26.5 -47.5t-40 -35t-49.5 -13.5q-18 0 -38.5 9t-39 24.5t-30.5 34t-12 36.5v353q0 18 -11.5 43.5t-30 49t-41 39t-42.5 15.5h-586q-14 0 -33.5 -12t-38 -29.5t-31 -37t-12.5 -34.5 v-344q0 -16 -16 -50t-23 -44q-39 -53 -88 -69.5t-110 -16.5t-109.5 16.5t-87.5 69.5q-6 8 -16.5 27.5t-10.5 23.5zM55 266q0 -16 13.5 -36.5t34 -37t42 -27.5t39.5 -11h129q23 0 46.5 16t43 39.5t31.5 50.5t12 49v344q0 20 16.5 45t39 45.5t49.5 34t45 13.5h586 q29 0 57.5 -18.5t51 -45.5t36.5 -58.5t14 -58.5v-344q0 -2 8.5 -15t12.5 -20l14 -14t16.5 -16t14.5 -14.5t8 -6.5h25q4 0 22.5 20.5t28.5 30.5q10 14 18.5 38t8.5 40v293q0 12 -8.5 40t-18.5 38l-266 266q-6 6 -30 18.5t-30 12.5h-344q-16 0 -18 19.5t-2 25.5q0 4 2 18 l465 473q2 2 3 7.5t1 9.5t-1 10t-3 8q-4 10 -21.5 26.5t-21.5 16.5h-25l-577 -567q-12 -14 -40 -28.5t-46 -14.5h-156q-18 0 -45 13.5t-49.5 34t-39 45t-16.5 44.5v344q0 6 -3 16.5t-8 22.5t-10 23.5t-9 15.5q-10 10 -28.5 30.5t-22.5 20.5h-27q-2 0 -21.5 -20.5 t-29.5 -30.5q-4 -4 -10.5 -17.5t-6.5 -17.5v-1239z" />
<glyph unicode="L" horiz-adv-x="1538" d="M20 360v1153q0 20 11.5 40t29 36.5t38 26.5t38.5 10q25 0 48.5 -15.5t42 -39t28.5 -50t10 -51.5v-344l21 -34q8 -8 29.5 -31t44 -47.5t44 -46l29.5 -29.5q16 -18 31.5 -55t15.5 -58v-344q0 -12 16.5 -31.5t39 -39t44 -32.5t33.5 -13h783q2 0 24.5 -11.5t34.5 -17.5 q14 -8 38 -25.5t24 -36.5v-172q0 -18 -18.5 -35.5t-44 -30.5t-52.5 -20.5t-41 -7.5h-946q-23 0 -54.5 9.5t-48.5 25.5l-266 266zM55 465l283 -285q4 -4 28.5 -15t32.5 -11h990q12 0 28.5 9t31.5 21.5t25.5 27.5t10.5 28q0 14 -11.5 29.5t-29 28.5t-34.5 22.5t-30 9.5h-784 q-16 0 -41 15t-49.5 38t-42 47.5t-17.5 42.5v344q0 12 -11 39t-19 39l-29.5 29.5t-44.5 46t-43 47t-29 31.5q-4 4 -10 14t-12 21.5t-11.5 20.5t-5.5 13v344q0 10 -11 39t-19 39q-10 10 -28.5 30.5t-22.5 20.5h-27q-2 0 -21.5 -20.5t-29.5 -30.5q-4 -6 -10.5 -18.5 t-6.5 -16.5v-1040z" />
<glyph unicode="M" d="M20 145v1153q0 14 12.5 37t22.5 33l240 240q14 14 40.5 28.5t45.5 14.5h801q18 0 45.5 -14.5t40.5 -28.5l241 -240q18 -18 30.5 -53t12.5 -60v-1058q0 -27 -9 -54.5t-25.5 -50t-39 -37t-51.5 -14.5q-18 0 -38.5 9t-39 24.5t-30.5 34t-12 36.5v1000q0 18 -11.5 42.5 t-30 48.5t-41 39t-42.5 15h-154q-14 0 -34.5 -12t-39 -29.5t-31 -37t-12.5 -33.5v-981q0 -27 -10 -54.5t-27.5 -50t-41 -37t-50.5 -14.5q-18 0 -38.5 9t-39 24.5t-30.5 34t-12 36.5v1000q0 18 -11.5 42.5t-30 48.5t-41 39t-42.5 15h-156q-23 0 -43.5 -14t-35.5 -34.5 t-24.5 -45.5t-9.5 -43t2 -31.5t17 -29.5q8 -8 29.5 -31t44 -47.5t44 -46l29.5 -29.5q16 -20 29.5 -53t13.5 -60v-628q0 -49 -20.5 -84t-54 -58.5t-74.5 -35t-84 -11.5q-61 0 -109.5 16.5t-87.5 69.5q-6 8 -16.5 27.5t-10.5 23.5zM55 266q0 -16 13.5 -36.5t34 -37t42 -27.5 t39.5 -11h129q25 0 47.5 16t41 39.5t29.5 50.5t11 49v508q0 18 -8 40t-18 38l-29.5 29.5t-44.5 46t-43 47t-29 31.5q-10 10 -22 32.5t-12 36.5v180q0 23 15 47.5t37.5 44t47 33t45.5 13.5h156q29 0 57.5 -18.5t51 -45t36.5 -58.5t14 -59v-989q0 -2 8.5 -15t12.5 -20l14 -14 t16.5 -16t20.5 -21h27q4 0 22.5 20.5t28.5 30.5q4 4 9 15.5t10 24t8.5 22.5t3.5 16v989q0 20 16 45t39.5 45.5t49.5 34t46 13.5h154q29 0 57.5 -18.5t51 -45t36.5 -58.5t14 -59v-989q0 -2 8.5 -15t12.5 -20l14 -14t16.5 -16t14.5 -14.5t8 -6.5h25q4 0 22.5 20.5t28.5 30.5 q10 14 18.5 38t8.5 40v938q0 12 -8.5 40t-18.5 38l-266 266q-2 4 -26.5 15.5t-33.5 11.5h-774l-53 -27l-283 -284v-1041z" />
<glyph unicode="N" d="M20 145v1153q0 14 12.5 37t22.5 33l240 240q14 14 40.5 28.5t45.5 14.5h801q18 0 45.5 -14.5t40.5 -28.5l241 -240q18 -18 30.5 -53t12.5 -60v-1058q0 -27 -9 -54.5t-25.5 -50t-39 -37t-51.5 -14.5q-18 0 -38.5 9t-39 24.5t-30.5 34t-12 36.5v1000q0 18 -11.5 42.5 t-30 48.5t-41 39t-42.5 15h-801q-23 0 -43.5 -14t-35.5 -34.5t-24.5 -45.5t-9.5 -43t2 -31.5t17 -29.5q8 -8 29.5 -31t44 -47.5t44 -46l29.5 -29.5q16 -20 29.5 -53t13.5 -60v-628q0 -49 -20.5 -84t-54 -58.5t-74.5 -35t-84 -11.5q-61 0 -109.5 16.5t-87.5 69.5 q-6 8 -16.5 27.5t-10.5 23.5zM55 266q0 -16 13.5 -36.5t34 -37t42 -27.5t39.5 -11h129q25 0 47.5 16t41 39.5t29.5 50.5t11 49v508q0 18 -8 40t-18 38l-29.5 29.5t-44.5 46t-43 47t-29 31.5q-10 10 -22 32.5t-12 36.5v180q0 23 15 47.5t37.5 44t47 33t45.5 13.5h801 q29 0 57.5 -18.5t51 -45t36.5 -58.5t14 -59v-989q0 -2 8.5 -15t12.5 -20l14 -14t16.5 -16t14.5 -14.5t8 -6.5h25q4 0 22.5 20.5t28.5 30.5q10 14 18.5 38t8.5 40v938q0 12 -8.5 40t-18.5 38l-266 266q-2 4 -26.5 15.5t-33.5 11.5h-774l-53 -27l-283 -284v-1041z" />
<glyph unicode="O" d="M20 360v938q0 14 12.5 37t22.5 33l240 240q14 14 40.5 28.5t45.5 14.5h801q18 0 45.5 -14.5t40.5 -28.5l241 -240q18 -18 30.5 -53t12.5 -60v-843q0 -20 -9 -53t-25 -50l-267 -266q-16 -16 -49 -25.5t-55 -9.5h-731q-23 0 -54.5 9.5t-48.5 25.5l-266 266zM55 465 l283 -285q4 -4 28.5 -15t32.5 -11h775l51 26l266 266q10 10 18.5 38t8.5 40v723q0 12 -8.5 40t-18.5 38l-266 266q-2 4 -26.5 15.5t-33.5 11.5h-774l-53 -27l-283 -284v-842zM236 473v825q0 23 15 47.5t37.5 44t47 33t45.5 13.5h586q4 0 13 -3t19.5 -8.5t18.5 -9.5t10 -4 q39 -23 58.5 -55.5t28.5 -70.5t11 -79t4 -80l17 -34q8 -8 29.5 -31t44 -47.5t44 -46l29.5 -29.5q18 -20 30.5 -53t12.5 -60v-309q0 -29 -13 -59.5t-34.5 -58t-49.5 -45t-58 -17.5h-801q-20 0 -45 13t-47.5 32.5t-37.5 44.5t-15 47zM270 481q0 -16 13.5 -36.5t34 -37 t42 -27.5t39.5 -11h775q4 0 23.5 10t27.5 16q31 23 47 47.5t22 51t7.5 57.5t1.5 67v95q-4 23 -11.5 46t-23.5 42q-8 8 -28.5 29.5t-43 46t-44.5 47t-30 30.5l-26 52q0 8 -1 27.5t-2 41t-3.5 42t-2.5 28.5q-2 20 -12 44.5t-26.5 47.5t-37 38t-44.5 15h-586q-14 0 -33.5 -12 t-36 -28.5t-29 -37t-12.5 -34.5v-697z" />
<glyph unicode="P" d="M20 145v1368q0 23 15.5 47.5t38 44t47 33t45.5 13.5h1016q18 0 45.5 -14.5t40.5 -28.5l241 -240q18 -18 27.5 -45t12.5 -55.5t3 -57.5v-53q0 -20 1 -48v-19q0 -20 -1 -38q-2 -28 -9 -53.5t-25 -44.5l-267 -266q-6 -6 -19 -12t-29.5 -12.5t-32 -10.5t-23.5 -4h-551 q-12 0 -31.5 -14t-38 -32.5t-32 -38t-13.5 -32.5v-335q0 -47 -21.5 -83t-56 -59.5t-76.5 -35t-83 -11.5q-61 0 -109.5 16.5t-87.5 69.5q-6 8 -16.5 27.5t-10.5 23.5zM55 266q0 -16 13.5 -36.5t34 -37t42 -27.5t39.5 -11h129q23 0 46.5 16t43 39.5t31.5 50.5t12 49v344 q0 18 17.5 42t42 46.5t49.5 38t41 15.5h578l51 30l266 267q23 23 25 56t2 60t-2.5 61t-24.5 56l-266 266q-2 4 -26.5 15.5t-33.5 11.5h-989q-16 0 -36.5 -12.5t-39 -28.5t-32 -36.5t-13.5 -35.5v-1239zM236 1118v180q0 23 15 47.5t37.5 44t47 33t45.5 13.5h801 q41 0 70.5 -23.5t48 -58.5t27.5 -74t9 -72t-9 -71.5t-27.5 -73.5t-48 -58.5t-70.5 -23.5h-801q-20 0 -45 13.5t-47.5 34t-37.5 44t-15 45.5zM268 1153q0 -23 11.5 -47.5t30 -44t42 -32.5t47.5 -13h775q20 0 42.5 13t39 33.5t27.5 44t11 44.5q0 20 -8 44t-23.5 45.5t-36 35.5 t-44.5 14h-801q-23 0 -43.5 -14t-35.5 -34.5t-24.5 -45.5t-9.5 -43z" />
<glyph unicode="Q" d="M20 360v938q0 14 12.5 37t22.5 33l240 240q14 14 40.5 28.5t45.5 14.5h801q18 0 45.5 -14.5t40.5 -28.5l241 -240q18 -18 30.5 -53t12.5 -60v-739q0 -31 -17 -57.5t-17 -55.5q0 -16 11 -33.5t15 -33.5q4 -18 6 -28.5t2 -20.5v-21v-30q0 -72 -20.5 -116t-58 -68.5t-91 -34 t-118.5 -9.5h-86t-82 17q-12 6 -24.5 16t-25 20.5t-24.5 18.5t-25 8q-14 0 -31.5 -12.5t-39 -27.5t-46 -27.5t-51.5 -12.5h-413q-23 0 -54.5 9.5t-48.5 25.5l-266 266zM55 465l283 -285q4 -4 28.5 -15t32.5 -11h447q23 0 41 11t34.5 23.5t35 23.5t40.5 11q23 0 41.5 -11 t35 -23.5t33.5 -23.5t40 -11h242q23 0 44 14t38.5 35.5t27.5 46t10 45.5q0 25 -11 44t-23.5 36.5t-23.5 36t-11 43.5q0 27 12 48t26.5 40.5t27 42t12.5 51.5v610q0 12 -8.5 40t-18.5 38l-266 266q-2 4 -26.5 15.5t-33.5 11.5h-774l-53 -27l-283 -284v-842zM236 473v825 q0 23 15 47.5t37.5 44t47 33t45.5 13.5h801q31 0 58.5 -17.5t49 -45t34.5 -59.5t13 -59v-524q0 -31 -13 -61.5t-34.5 -56t-49.5 -43t-58 -19.5q-4 0 -24.5 -2t-43 -3t-43 -3t-27.5 -2q-10 0 -31.5 -10.5t-27.5 -14.5q-47 -47 -95 -96t-112 -76q-4 -2 -14 -5t-12 -3h-371 q-20 0 -45 13t-47.5 32.5t-37.5 44.5t-15 47zM270 481q0 -16 13.5 -36.5t34 -37t42 -27.5t39.5 -11h344l52 26q8 8 29.5 27.5t44 41t44 41t29.5 27.5q47 43 110 47.5t122 4.5q49 16 89 59t40 96v406q0 20 -10.5 44.5t-28 47.5t-39 38t-43.5 15h-801q-14 0 -33.5 -12 t-36 -28.5t-29 -37t-12.5 -34.5v-697z" />
<glyph unicode="R" d="M20 145v1368q0 23 15.5 47.5t38 44t47 33t45.5 13.5h801q18 0 45.5 -14.5t40.5 -28.5l241 -240q8 -8 16.5 -23.5t15.5 -33t11 -32.5t4 -24v-344l21 -34q8 -8 29.5 -31t44 -47.5t44 -46l29.5 -29.5q18 -20 30.5 -53t12.5 -60v-422q0 -25 -9 -51t-26.5 -47.5t-40 -35 t-49.5 -13.5q-18 0 -38.5 9t-39 24.5t-30.5 34t-12 36.5v353q0 18 -11.5 43.5t-30 49t-41 39t-42.5 15.5h-586q-14 0 -33.5 -12t-38 -29.5t-31 -37t-12.5 -34.5v-335q0 -47 -21.5 -83t-56 -59.5t-76.5 -35t-83 -11.5q-61 0 -109.5 16.5t-87.5 69.5q-6 8 -16.5 27.5 t-10.5 23.5zM55 266q0 -16 13.5 -36.5t34 -37t42 -27.5t39.5 -11h129q23 0 46.5 16t43 39.5t31.5 50.5t12 49v344q0 20 16.5 45t39 45.5t49.5 34t45 13.5h586q29 0 57.5 -18.5t51 -45.5t36.5 -58.5t14 -58.5v-344q0 -2 8.5 -15t12.5 -20l14 -14t16.5 -16t14.5 -14.5t8 -6.5 h25q4 0 22.5 20.5t28.5 30.5q10 14 18.5 38t8.5 40v293q0 18 -8.5 40t-18.5 38l-29.5 29.5t-44 46t-43 47t-28.5 31.5q-4 4 -10.5 14t-12.5 21.5t-11 20.5t-5 13v344q0 4 -3.5 15.5t-8.5 23.5t-10 23.5t-9 15.5l-266 266q-4 4 -28 15.5t-32 11.5h-774q-16 0 -36.5 -12.5 t-39 -28.5t-32 -36.5t-13.5 -35.5v-1239zM236 1118v180q0 23 15 47.5t37.5 44t47 33t45.5 13.5h586q41 0 70.5 -23.5t48 -58.5t27.5 -74t9 -72t-9 -71.5t-27.5 -73.5t-48 -58.5t-70.5 -23.5h-586q-20 0 -45 13.5t-47.5 34t-37.5 44t-15 45.5zM268 1153q0 -23 11.5 -47.5 t30 -44t42 -32.5t47.5 -13h559q20 0 43 13t39.5 33.5t27.5 44t11 44.5q0 20 -8 44t-23.5 45.5t-36 35.5t-44.5 14h-586q-23 0 -43.5 -14t-35.5 -34.5t-24.5 -45.5t-9.5 -43z" />
<glyph unicode="S" d="M20 791v507q0 14 12.5 37t22.5 33l240 240q14 14 40.5 28.5t45.5 14.5h801q18 0 45.5 -14.5t40.5 -28.5l250 -248v-182q0 -33 -33 -46.5t-58 -13.5q-10 0 -23 -1t-24 9q-8 8 -29.5 28t-44 42.5t-44 41.5t-29.5 26q-6 8 -23.5 17t-27.5 9h-801q-23 0 -43.5 -14 t-35.5 -34.5t-24.5 -45.5t-9.5 -43q0 -20 12.5 -46t32 -47.5t42 -35.5t44.5 -14h783q2 0 25.5 -11.5t35.5 -17.5q4 -4 13.5 -10t11.5 -8l241 -240q18 -20 27.5 -47t12.5 -55.5t3 -57.5v-51q0 -20 1 -48v-19q0 -19 -1 -37q-2 -28 -9 -54t-25 -45l-267 -266q-16 -16 -49 -25.5 t-55 -9.5h-731q-23 0 -54.5 9.5t-48.5 25.5l-266 266v180q0 14 10.5 25.5t24.5 20t29.5 12.5t25.5 4q16 0 28.5 -2t27.5 -17l145 -137q4 -4 28.5 -15t32.5 -11h559q20 0 43 14t39.5 34.5t27.5 44t11 44.5q0 18 -10 42.5t-25.5 47t-36 38t-40.5 15.5h-766q-23 0 -54.5 12.5 t-59.5 32t-47.5 45t-19.5 52.5zM55 911q0 -14 15.5 -33.5t36 -38t43 -31.5t34.5 -13h783q2 0 25.5 -11.5t35.5 -17.5q57 -33 75.5 -88t18.5 -115q0 -33 -9 -71.5t-27.5 -73.5t-48 -58.5t-70.5 -23.5h-586l-25 8q-63 27 -111 76t-95 96h-27q-4 0 -20.5 -16.5t-22.5 -26.5 q0 -2 -1 -8t-1 -10t2 -17l258 -258q4 -4 28.5 -15t32.5 -11h775l51 26l266 266q23 23 25 57t2 60q0 27 -2.5 60.5t-24.5 56.5l-266 266q-6 6 -30 18.5t-30 12.5h-784q-16 0 -42 15.5t-48.5 37t-38.5 46t-16 42.5v180q0 23 15 47.5t37.5 44t47 33t45.5 13.5h801q2 0 12 -3 t14 -6q63 -27 111.5 -75.5t95.5 -96.5h25q4 0 21.5 16.5t21.5 26.5q2 2 3 8.5t1 10.5t-1 10t-3 6l-258 258q-2 4 -26.5 15.5t-33.5 11.5h-774l-53 -27l-283 -284v-396z" />
<glyph unicode="T" horiz-adv-x="1513" d="M20 1395v172q0 14 14.5 29.5t35 27.5t41 20.5t30.5 8.5h1231q12 0 31.5 -8.5t40 -21.5t35 -28.5t14.5 -27.5v-172q0 -18 -18.5 -36t-44 -32t-52 -23.5t-41.5 -9.5h-336q-20 0 -39.5 -15t-36 -37.5t-26.5 -46.5t-10 -42q0 -16 2 -29.5t16 -29.5q8 -8 29.5 -31t44.5 -47.5 t43 -47t29 -30.5q18 -20 30.5 -52t12.5 -61v-628q0 -49 -20.5 -84t-53.5 -58.5t-74 -35t-84 -11.5q-63 0 -110 17.5t-88 68.5q-6 10 -17.5 28.5t-11.5 22.5v1000q0 18 -12.5 43.5t-31 49.5t-40 40t-41.5 16h-336q-14 0 -40.5 9.5t-52.5 23.5t-44.5 31.5t-18.5 36.5zM53 1532 q0 -14 11.5 -29.5t29 -29t34.5 -22.5t30 -9h354q27 0 54.5 -19.5t50 -48t38 -60.5t15.5 -57v-991q0 -12 15 -31.5t36.5 -38t44 -30.5t39.5 -12h129q25 0 47.5 16t40.5 39.5t29.5 50.5t11.5 49v508q0 18 -8 40t-19 38q-8 8 -29.5 30.5t-44 47t-43 46t-28.5 32.5 q-10 10 -22.5 31.5t-12.5 35.5v182q0 18 16.5 43t39 46.5t48 37t41.5 15.5h355q12 0 29.5 9t35 22.5t28.5 29t11 29.5t-11 29.5t-26.5 28t-34 20.5t-32.5 8h-1206q-12 0 -29 -8t-32 -21.5t-25.5 -29t-10.5 -27.5z" />
<glyph unicode="U" d="M20 360v1153q0 20 11.5 41t29 36.5t38 25.5t38.5 10q25 0 48.5 -15.5t42 -38t28.5 -50t10 -52.5v-344l21 -34q8 -8 29.5 -31t44 -47.5t44 -46l29.5 -29.5q16 -18 31.5 -55t15.5 -58v-344q0 -12 15.5 -31.5t37 -38t44 -30.5t36.5 -12h560q23 0 46 16t42.5 40t32 50.5 t12.5 48.5v989q0 18 12 39t30.5 37.5t39 26.5t38.5 10q27 0 49.5 -14.5t40 -38t26.5 -51t9 -52.5v-1058q0 -20 -9 -53t-25 -50l-267 -266q-16 -16 -49 -25.5t-55 -9.5h-731q-23 0 -54.5 9.5t-48.5 25.5l-266 266zM55 465l283 -285q4 -4 28.5 -15t32.5 -11h775l51 26l266 266 q10 10 18.5 38t8.5 40v938q0 16 -8.5 40t-18.5 38q-10 10 -28.5 30.5t-22.5 20.5h-25q-2 0 -8 -6t-14.5 -14t-16.5 -16.5t-14 -14.5q-4 -6 -12.5 -19.5t-8.5 -15.5v-989q0 -27 -14 -58.5t-36.5 -58t-51.5 -45t-57 -18.5h-586q-18 0 -45 13t-49.5 33.5t-39 45.5t-16.5 45v344 q0 14 -11 40t-19 38l-29.5 29.5t-44.5 46t-43 47t-29 31.5q-4 4 -10 14t-12 21.5t-11.5 20.5t-5.5 13v344q0 6 -3 16.5t-8 22.5t-10 23.5t-9 15.5q-10 10 -28.5 30.5t-22.5 20.5h-27q-2 0 -21.5 -20.5t-29.5 -30.5q-4 -4 -10.5 -17.5t-6.5 -17.5v-1040z" />
<glyph unicode="V" d="M20 791v722q0 23 15.5 47.5t38 44t47 33t45.5 13.5h156q29 0 57.5 -18.5t51 -45t36.5 -58.5t14 -59v-989q0 -12 15.5 -31.5t37 -38t44 -30.5t36.5 -12h344q4 0 23.5 10t28.5 16q41 31 54 62.5t16 67.5t5 74t19 81q4 10 12 23.5t14 19.5q8 8 29 29.5t43.5 46t44 47 t29.5 31.5q8 12 19.5 37.5t11.5 39.5v559q0 18 12 39t30.5 37.5t39 26.5t38.5 10q27 0 49.5 -14.5t40 -38t26.5 -51t9 -52.5v-626q0 -23 -9 -55.5t-25 -49.5l-146 -155q-27 -29 -31 -65q-3 -29 -3 -58v-15v-12q0 -30 -4 -61q-5 -37 -31 -64l-267 -266q-16 -16 -49 -25.5 t-55 -9.5h-301q-23 0 -54.5 9.5t-48.5 25.5l-266 266l-26 51q0 20 -1.5 51t-4.5 63t-11 61.5t-26 48.5q-8 8 -29 30.5t-43.5 47t-44 47t-29.5 30.5zM55 911l17 -34q8 -8 29.5 -31t44 -47.5t44 -46l29.5 -29.5q20 -23 30.5 -53.5t14.5 -64.5t5 -65.5t1 -58.5l17 -35l266 -266 q4 -4 28.5 -15t32.5 -11h344l52 26l266 266q25 25 29 60t4 74t5 76.5t32 66.5q8 8 28.5 29.5t43 46t44 47t29.5 31.5q10 16 18.5 37.5t8.5 39.5v508q0 16 -8.5 40t-18.5 38q-10 10 -28.5 30.5t-22.5 20.5h-25q-2 0 -8 -6t-14.5 -14t-16.5 -16.5t-14 -14.5q-4 -6 -12.5 -19.5 t-8.5 -15.5v-559q0 -20 -15 -57t-32 -55q-8 -8 -29.5 -31t-44 -47.5t-44 -46l-29.5 -29.5l-17 -35q-2 -39 -4 -80t-11 -78.5t-28.5 -70.5t-58.5 -56q-2 0 -10 -4t-18.5 -9t-19.5 -8t-13 -3h-371q-18 0 -45 13t-49.5 33.5t-39 45.5t-16.5 45v989q0 25 -13 51.5t-32.5 50 t-45 39t-50.5 15.5h-129q-16 0 -36.5 -12.5t-39 -28.5t-32 -36.5t-13.5 -35.5v-594z" />
<glyph unicode="W" d="M20 360v1153q0 20 11.5 41t29 36.5t38 25.5t38.5 10q25 0 48.5 -15.5t42 -38t28.5 -50t10 -52.5v-344l21 -34q8 -8 29.5 -31t44 -47.5t44 -46l29.5 -29.5q16 -18 31.5 -55t15.5 -58v-344q0 -2 8.5 -15t12.5 -20l14 -14t16.5 -16t20.5 -21h27q4 0 22.5 20.5t28.5 30.5 q4 4 9 15.5t10 24t8.5 22.5t3.5 16v989q0 18 12 39t30.5 37.5t39 26.5t38.5 10q25 0 48.5 -15.5t42 -38t28.5 -50t10 -52.5v-989q0 -12 15.5 -31.5t37 -38t44 -30.5t36.5 -12h130q23 0 46 16t42.5 40t32 50.5t12.5 48.5v989q0 18 12 39t30.5 37.5t39 26.5t38.5 10 q27 0 49.5 -14.5t40 -38t26.5 -51t9 -52.5v-1058q0 -20 -9 -53t-25 -50l-267 -266q-16 -16 -49 -25.5t-55 -9.5h-731q-23 0 -54.5 9.5t-48.5 25.5l-266 266zM55 465l283 -285q4 -4 28.5 -15t32.5 -11h775l51 26l266 266q10 10 18.5 38t8.5 40v938q0 16 -8.5 40t-18.5 38 q-10 10 -28.5 30.5t-22.5 20.5h-25q-2 0 -8 -6t-14.5 -14t-16.5 -16.5t-14 -14.5q-4 -6 -12.5 -19.5t-8.5 -15.5v-989q0 -27 -14 -58.5t-36.5 -58t-51.5 -45t-57 -18.5h-154q-20 0 -46 13t-49.5 33.5t-39.5 45.5t-16 45v989q0 6 -3.5 16.5t-8.5 22.5t-10 23.5t-9 15.5 q-10 10 -28.5 30.5t-22.5 20.5q-27 0 -33 -6t-14.5 -14t-16.5 -16.5t-14 -14.5q-4 -6 -12.5 -19.5t-8.5 -15.5v-989q0 -25 -10 -52.5t-28.5 -50t-42 -38t-48.5 -15.5q-18 0 -38.5 10.5t-39 27t-31 37t-12.5 38.5v344q0 14 -11 40t-19 38l-29.5 29.5t-44.5 46t-43 47 t-29 31.5q-4 4 -10 14t-12 21.5t-11.5 20.5t-5.5 13v344q0 6 -3 16.5t-8 22.5t-10 23.5t-9 15.5q-10 10 -28.5 30.5t-22.5 20.5h-27q-2 0 -21.5 -20.5t-29.5 -30.5q-4 -4 -10.5 -17.5t-6.5 -17.5v-1040z" />
<glyph unicode="X" d="M20 145v293q0 14 12.5 37t22.5 33l318 326l-326 335l-27 52v292q0 20 11.5 41t29 36.5t38 25.5t38.5 10q49 0 76 -32.5t39 -79t15 -94.5t3 -79l17 -34l266 -267q4 -4 28.5 -14t32.5 -10h344l52 24l266 267q23 23 26 76t9 107t29.5 95t89.5 41q45 0 70.5 -28.5t36.5 -68.5 t13 -83t2 -74q0 -18 1 -46v-19q0 -19 -1 -39q-2 -30 -10 -56t-24 -43l-328 -335l311 -318q43 -47 47 -103.5t4 -115.5q0 -33 -2 -77t-13 -84t-36.5 -67.5t-73.5 -27.5q-45 0 -73.5 31.5t-42.5 72.5q0 8 -1 28t-2 41.5t-3 40.5t-2 28q-2 20 -10.5 45.5t-24.5 40.5l-250 249 q-6 8 -23.5 17.5t-27.5 9.5h-371q-14 0 -33.5 -12t-38 -29.5t-31 -37t-12.5 -34.5v-335q0 -47 -21.5 -83t-56 -59.5t-76.5 -35t-83 -11.5q-61 0 -109.5 16.5t-87.5 69.5q-6 8 -16.5 27.5t-10.5 23.5zM55 266q0 -16 13.5 -36.5t34 -37t42 -27.5t39.5 -11h129q23 0 46.5 16 t43 39.5t31.5 50.5t12 49v344q0 20 16.5 45t39 45.5t49.5 34t45 13.5h371q18 0 45.5 -14.5t40.5 -28.5l233 -232q31 -31 39 -87t15.5 -111.5t23.5 -96.5t63 -41h13q45 35 61.5 73t16.5 91q0 25 -3.5 62.5t-23.5 58.5l-361 369q-10 10 -10 26v29q0 23 1 32t18 25l352 361 q23 23 25 56.5t2 59.5q0 20 -4.5 49t-15.5 55.5t-29.5 45t-47.5 18.5q-14 0 -26.5 -9t-22.5 -22.5t-17 -28.5t-9 -26q0 -23 -1.5 -55.5t-5.5 -67t-14 -66.5t-31 -52l-241 -240q-12 -14 -40 -28.5t-46 -14.5h-371q-18 0 -45 14.5t-41 28.5l-240 240q-29 27 -34 62.5t-5 72.5 q0 39 -3 75.5t-27 65.5q-10 10 -28.5 30.5t-22.5 20.5h-27q-2 0 -21.5 -20.5t-29.5 -30.5q-4 -4 -10.5 -17.5t-6.5 -17.5v-180l379 -387q10 -10 9 -25.5t-1 -25.5q0 -12 1 -27.5t-9 -25.5l-379 -388v-180z" />
<glyph unicode="Y" horiz-adv-x="1366" d="M20 1358v76q0 29 6.5 62.5t20.5 62t39 48t61 19.5q25 0 48.5 -15.5t41 -39t27.5 -50t10 -51.5v-356l271 -280q10 -10 34.5 -22.5t34.5 -12.5h129q8 0 33 11t27 15l266 267q10 10 18.5 37.5t8.5 39.5v318q0 25 11 49.5t28.5 43.5t40 32.5t47.5 13.5q27 0 49 -15.5 t38.5 -38t26 -50t9.5 -52.5v-413q0 -8 -3.5 -22.5t-7.5 -30t-11 -29.5t-13 -21l-371 -379q-4 -4 -12 -21t-8 -22v-335q0 -49 -23 -85t-57.5 -58.5t-77.5 -34t-84 -11.5q-61 0 -106.5 17.5t-86.5 68.5q-8 10 -19 28.5t-11 22.5v344q0 6 -5.5 20.5t-11.5 30t-12 28t-10 16.5 l-361 370q-27 51 -27.5 92t-1.5 97.5t-3.5 116t-2.5 98.5zM63 1110l371 -379q16 -18 35.5 -56t19.5 -65v-344q0 -12 14.5 -31.5t34 -38t41 -30.5t35.5 -12h129q27 0 51.5 15t44 37.5t31 50.5t11.5 52v318q0 8 4 21.5t10 27.5t14.5 27.5t14.5 19.5l360 369q10 10 18.5 36.5 t8.5 40.5v293q0 18 -7.5 40t-20.5 42.5t-30.5 33.5t-38.5 13q-10 0 -23 -10t-25.5 -23.5t-21.5 -29t-9 -23.5v-344q0 -8 -4.5 -23.5t-11.5 -33t-15 -32.5t-17 -23l-233 -232q-14 -16 -43 -33.5t-51 -17.5h-154q-20 0 -47 14.5t-39 28.5l-241 240q-4 4 -10.5 14t-12.5 21.5 t-11 21.5t-5 12v344q0 16 -9.5 39t-22.5 42.5t-31.5 33.5t-37.5 14q-10 0 -23.5 -9t-24.5 -22.5t-19.5 -28.5t-8.5 -26v-395z" />
<glyph unicode="Z" horiz-adv-x="1581" d="M20 1430q0 78 29 130t101 82q4 2 14 5.5t12 3.5h1229q10 0 30.5 -8.5t40 -20.5t35 -27.5t15.5 -29.5v-181l-1006 -1015h654q8 0 31.5 11t27.5 15q23 18 41 38t29 48q10 31 11 79t9 94t32.5 79t82.5 33q27 0 49 -15.5t38.5 -38t26 -50t9.5 -52.5v-413q0 -37 -16.5 -71 t-42 -59.5t-60.5 -42t-72 -16.5h-1169q-23 0 -50.5 11.5t-44.5 23.5q-12 8 -31.5 27.5t-19.5 23.5v189l998 1007h-662q-12 0 -28.5 -10t-24.5 -16q-8 -8 -29.5 -27.5t-44 -41t-43 -41t-28.5 -28.5q-10 -10 -25 -10h-23q-45 0 -73.5 32t-42.5 73q-6 66 -7.5 107.5t-1.5 101.5 zM63 1341q0 -27 28 -56.5t56 -29.5h11l155 146q2 2 21.5 12t30.5 14q4 2 14 5.5t12 3.5h791q16 0 17 -16.5t1 -24.5v-13q0 -6 -2 -6l-1108 -1118q-2 -2 -2 -8v-8q0 -14 9 -29.5t23.5 -29t31 -21.5t32.5 -8h1205q27 0 51 15t43.5 37.5t31 50.5t11.5 52v285q0 18 -7.5 41.5 t-19.5 45t-29.5 36t-39.5 14.5q-14 0 -26.5 -9t-23 -22.5t-17.5 -29t-9 -25.5l-4 -82t-11.5 -77.5t-30 -68.5t-57.5 -57q-2 0 -10 -4t-18.5 -9t-19.5 -8t-13 -3h-791q-16 0 -18 16.5t-2 24.5q0 4 2 18l1110 1118q2 0 3 6.5t1 10.5q0 14 -11 29.5t-27.5 27.5t-35 20.5 t-32.5 8.5h-1205q-16 0 -36.5 -11.5t-39 -27.5t-32 -35.5t-13.5 -36.5v-164z" />
<glyph unicode="[" horiz-adv-x="790" d="M20 164v1333q0 27 14.5 54.5t38 50t51.5 37t52 14.5h473q12 0 31.5 -8.5t40 -20.5t35 -27.5t14.5 -29.5v-172q0 -20 -18.5 -38t-44 -30t-52 -19.5t-41.5 -7.5q-12 0 -45.5 -2t-70.5 -3t-70 -3t-45 -2q-20 -4 -40.5 -17t-36 -31.5t-26 -40t-10.5 -42.5q0 -20 8.5 -38.5 t18.5 -35.5q8 -10 29.5 -31.5t44 -46t43 -47t28.5 -30.5q10 -10 24.5 -39t14.5 -39v-352q0 -4 11.5 -29t19.5 -33q16 -25 59 -44t87 -37.5t78 -38t34 -44.5v-172q0 -18 -18.5 -35.5t-44 -30.5t-52 -20.5t-41.5 -7.5h-413q-29 0 -59.5 12.5t-58.5 34t-45.5 50t-17.5 59.5z M55 285q0 -20 12.5 -44t32 -43.5t42 -31.5t42.5 -12h449q14 0 32.5 8t34 21.5t26.5 28.5t11 30q0 2 -1 8t-1 8q-29 33 -62.5 49.5t-67.5 30.5t-66.5 31.5t-61.5 52.5q-2 2 -7 11t-10 20.5t-9.5 21.5t-4.5 14v355q0 6 -11 29.5t-19 29.5l-154 164q-25 27 -25.5 70t-0.5 73 q0 70 14 113t72 88q2 2 12 7t21.5 10.5t21.5 9.5t14 4h242q12 0 29.5 9t35 22.5t28.5 29t11 29.5t-11 29.5t-26.5 28t-34 20.5t-32.5 8h-449q-20 0 -42.5 -12.5t-42 -32t-32 -42t-12.5 -42.5v-1204z" />
<glyph unicode="\" horiz-adv-x="1513" d="M20 1386v181q0 14 10.5 25.5t25 19.5t29.5 12t26 4q16 0 29.5 -2t25.5 -16l1327 -1325v-183q0 -16 -10 -27.5t-23.5 -18.5t-29 -10t-27.5 -3t-24.5 -1t-22.5 9zM51 1532q0 -4 1 -10t3 -6l1334 -1336h26q4 0 20.5 16.5t22.5 26.5q0 2 1 8.5t1 10.5t-2 16l-1335 1335h-25 q-4 0 -21.5 -16t-21.5 -27q-2 -2 -3 -8t-1 -10z" />
<glyph unicode="]" horiz-adv-x="790" d="M20 102v172q0 35 44.5 53.5t98.5 39t98 49t44 84.5v661q0 10 -11 34t-15 28q-18 23 -38 40t-48.5 27t-50 16.5t-40 13.5t-36 20.5t-37.5 37.5q-2 2 -5.5 8.5t-3.5 8.5v172q0 14 14.5 29.5t35 27.5t40 20.5t31.5 8.5h258q25 0 52.5 -15.5t52 -38t40 -50t15.5 -52.5v-352 q0 -10 11.5 -33t19.5 -27q8 -10 28.5 -31.5t43 -46t44 -47t29.5 -30.5q12 -14 23.5 -38t11.5 -40v-688q0 -31 -18.5 -59.5t-45 -50t-58.5 -34t-58 -12.5h-414q-16 0 -41.5 7.5t-51.5 20.5t-44.5 30.5t-18.5 35.5zM53 1532q0 -2 1 -8t1 -8q27 -33 59.5 -49.5t65.5 -29 t64.5 -28.5t60.5 -49q10 -12 22.5 -37t12.5 -41v-793q0 -16 -12.5 -39.5t-22.5 -35.5q-35 -39 -61.5 -52.5t-49 -18.5t-44 -9t-44.5 -25q-12 -10 -31.5 -29.5t-19.5 -21.5v-35q0 -4 19.5 -23.5t31.5 -27.5q6 -4 22.5 -11t21.5 -7h456q20 0 43 12t42.5 31.5t31.5 43t12 44.5 v559q0 8 -11 32.5t-15 26.5l-154 164q-2 2 -7 11t-10.5 21.5t-9.5 23t-4 14.5v352q0 18 -13 40.5t-33.5 42t-43 33t-43.5 13.5h-241q-12 0 -29 -8t-32 -21.5t-25.5 -29t-10.5 -27.5z" />
<glyph unicode="^" horiz-adv-x="1083" d="M20 963v182l465 465q14 12 26.5 15t29.5 3q16 0 29.5 -3t27.5 -15l465 -465v-182q0 -16 -10.5 -27.5t-23.5 -19t-28.5 -10.5t-27.5 -3t-24.5 -1t-22.5 9l-363 355h-43l-362 -355q-10 -10 -22.5 -9t-24.5 1q-25 0 -58 13.5t-33 46.5zM51 1102q0 -4 1 -10.5t3 -8.5 q4 -10 21.5 -26.5t21.5 -16.5h25l362 355q14 12 26.5 15t29.5 3q16 0 29.5 -3t27.5 -15l360 -355h27q4 0 20.5 16.5t22.5 26.5q0 2 1 8.5t1 10.5t-2 16l-473 473h-27l-473 -473q-2 0 -3 -6t-1 -10z" />
<glyph unicode="`" horiz-adv-x="497" d="M20 1239v258q0 45 23 75t56.5 48t73.5 25.5t75 7.5q10 0 37.5 -1t36.5 -1q25 -6 52 -19.5t49.5 -34t38 -46t15.5 -54.5v-577q0 -23 -11 -45.5t-27.5 -41t-39 -30.5t-43.5 -12q-45 0 -67.5 22.5t-34.5 54t-20.5 67t-24.5 62.5q-47 49 -99.5 99.5t-80.5 115.5 q-2 4 -5.5 14.5t-3.5 12.5zM55 1358q0 -8 11.5 -31.5t13.5 -28.5l156 -163q20 -23 26 -45.5t12.5 -47t18.5 -50t47 -56.5q2 0 8 -1t8 -1q14 0 29.5 11t28 27.5t20.5 35t8 32.5v449q0 20 -12 42.5t-31.5 42t-42 32t-43.5 12.5h-129q-20 0 -42.5 -12.5t-42 -32t-32 -42 t-12.5 -42.5v-131z" />
<glyph unicode="a" horiz-adv-x="1202" d="M20 154v335q0 39 25 71t55.5 60.5t55 57.5t24.5 61v250q0 6 11.5 28.5t17.5 31.5l182 188q0 2 20.5 12.5t30.5 14.5q4 2 13.5 5t11.5 3h266q8 0 33 -11.5t29 -13.5l196 -198q2 -2 7.5 -11.5t10.5 -21.5t9 -23.5t4 -13.5v-248q0 -25 24.5 -52.5t55.5 -58t55.5 -63.5 t24.5 -68v-317q0 -23 -5.5 -47.5t-17.5 -45t-30.5 -33.5t-45.5 -13q-35 0 -65.5 30.5t-30.5 65.5v250q0 20 -12 40.5t-30.5 36t-41 24.5t-41.5 9h-368q-18 0 -39 -9t-38.5 -23.5t-28.5 -32.5t-11 -37v-242q0 -35 -17.5 -61.5t-44 -42.5t-58.5 -24.5t-60 -8.5q-33 0 -65 8.5 t-56.5 26.5t-40 46t-15.5 65zM55 266q0 -31 14.5 -52t36 -34.5t48 -19.5t51.5 -6q20 0 43.5 6t44 19.5t35 32.5t14.5 46v258q0 18 13.5 38.5t32 36t40 26t39.5 10.5h430q20 0 43 -12.5t41 -32t29.5 -42t11.5 -42.5v-248q0 -23 20.5 -47.5t42.5 -24.5q31 0 43.5 32t18.5 56 v99q0 49 -1 101t-34 93q-4 4 -17.5 19.5t-29.5 32t-30.5 31.5t-16.5 20q-6 10 -18.5 32.5t-12.5 26.5v242q0 2 -4 13t-9 22.5t-9 21.5t-7 12l-182 180l-51 25h-248l-53 -25l-180 -180q-6 -8 -18.5 -30.5t-12.5 -30.5v-240q0 -41 -24.5 -70.5t-54.5 -57.5t-54.5 -58.5 t-24.5 -71.5v-207zM346 938q0 25 5 54.5t18.5 55t35 43t54.5 17.5h284q31 0 52.5 -17.5t35 -43t19.5 -55t6 -52.5q0 -27 -6 -57.5t-21.5 -57t-39 -44t-56.5 -17.5h-266q-35 0 -58.5 17.5t-38 43t-19.5 56t-5 57.5zM389 885q0 -29 27.5 -57.5t60.5 -28.5h248q14 0 29.5 7 t29 19.5t21.5 26.5t8 29q0 35 -31.5 62.5t-64.5 27.5h-232q-33 0 -64.5 -26.5t-31.5 -59.5z" />
<glyph unicode="b" horiz-adv-x="1202" d="M20 154v989q0 20 11.5 42.5t28 42t38 32t43.5 12.5h592q8 0 33 -11.5t29 -13.5l196 -198q18 -16 23.5 -40t6.5 -48.5t2 -48t11 -44.5q14 -29 39 -53t49.5 -50t42 -54.5t17.5 -65.5v-319q0 -25 -12.5 -59t-30.5 -52l-164 -164q-16 -16 -48 -29.5t-55 -13.5h-706 q-4 0 -20.5 3t-22.5 5q-45 16 -74 52t-29 86zM55 266q0 -39 31 -75.5t72 -36.5h723q8 0 32.5 11t26.5 15l172 172q14 14 22.5 38t12.5 40v94q0 53 -2 108.5t-41 98.5q-4 2 -15.5 13.5t-23.5 24.5t-24.5 23.5t-14.5 14.5t-11 23.5t-14 29.5q-10 18 -11 42t-3 46.5t-7 45 t-22 38.5l-182 180l-51 25h-567q-41 0 -72 -37t-31 -74v-860zM182 942q0 23 6.5 51.5t20.5 54t34.5 43t51.5 17.5h448q31 0 52.5 -17.5t35 -43t19.5 -55t6 -52.5q0 -27 -6 -57.5t-21.5 -57t-39 -44t-56.5 -17.5h-428q-35 0 -58.5 18.5t-37.5 45t-20.5 57t-6.5 57.5zM225 885 q0 -14 8.5 -29.5t21.5 -28t28.5 -20.5t29.5 -8h412q14 0 29.5 7t29 19.5t21.5 26.5t8 29q0 35 -31.5 62.5t-64.5 27.5h-395q-31 0 -64 -26.5t-33 -59.5zM346 459q0 27 6 56.5t20.5 54t37 41t57.5 16.5h430q33 0 56.5 -17.5t38 -43t20.5 -55.5t6 -56q0 -23 -6 -52.5 t-19.5 -56.5t-35 -45t-52.5 -18h-446q-35 0 -56.5 18t-34 45t-17.5 57.5t-5 55.5zM389 399q0 -29 24.5 -55.5t53.5 -26.5h422q14 0 29.5 8.5t27.5 20.5t20.5 27.5t8.5 29.5q0 16 -12.5 32t-28.5 28t-36.5 19t-35.5 7h-368q-35 0 -70 -26.5t-35 -63.5z" />
<glyph unicode="c" horiz-adv-x="1177" d="M20 317v664q0 12 11.5 39t23.5 39l189 188q4 4 28.5 15.5t32.5 11.5h594q8 0 31.5 -11.5t27.5 -15.5l199 -196v-156q0 -31 -23.5 -42t-46.5 -11q-35 0 -59 20.5t-47 45t-48.5 45t-60.5 20.5h-550q-14 0 -31 -8.5t-31 -20.5t-23.5 -27.5t-9.5 -29.5q0 -29 23.5 -55.5 t51.5 -54t51.5 -56.5t23.5 -59v-248q0 -14 9 -30.5t23.5 -31t31 -25t28.5 -10.5q422 0 432 3.5t14 7.5q4 0 10.5 3t8.5 5l102 94q10 10 25 10h26q4 0 17.5 -1t17.5 -1q12 -8 23.5 -21.5t11.5 -29.5v-156l-180 -180q-16 -16 -49 -29.5t-56 -13.5h-550q-23 0 -50.5 13.5 t-44.5 29.5l-172 172q-12 12 -23.5 44t-11.5 50zM55 430q0 -10 9.5 -35.5t15.5 -34.5l182 -180q2 -4 26.5 -15t33.5 -11h559q8 0 32.5 11t28.5 15l172 172q2 2 5 12.5t3 14.5q0 16 -11 21.5t-24 5.5q-2 0 -8 -1.5t-8 -1.5q-4 -4 -16.5 -15t-26.5 -23.5t-26.5 -22.5 t-16.5 -14q-6 -4 -17.5 -12.5t-23.5 -15.5t-23.5 -12t-13.5 -5h-448q-18 0 -38 11t-37 28.5t-28.5 37t-11.5 35.5v250q0 37 -25.5 64.5t-55.5 59.5t-55.5 72t-25.5 101q0 25 6.5 53.5t20.5 54t34.5 43t51.5 17.5h612q29 0 50.5 -18.5t40 -42t40 -42t49.5 -18.5 q14 0 24.5 7.5t10.5 23.5v4l-8 16l-172 172q-4 4 -28.5 15.5t-32.5 11.5h-568l-51 -27l-182 -180q-6 -8 -15.5 -32.5t-9.5 -34.5v-535z" />
<glyph unicode="d" horiz-adv-x="1202" d="M20 154v981q0 20 10.5 44.5t27 45t39 34t44.5 13.5h756q8 0 32.5 -11.5t28.5 -13.5l189 -190q4 -4 10 -14.5t11.5 -23.5t9.5 -26.5t4 -21.5v-645q0 -25 -12.5 -59t-30.5 -52l-164 -164q-16 -16 -48 -29.5t-55 -13.5h-706q-4 0 -20.5 3t-22.5 5q-45 16 -74 52t-29 86z M55 266q0 -39 22.5 -64.5t55.5 -37.5q4 -4 13.5 -7t11.5 -3h723q8 0 32.5 11t26.5 15l172 172q12 12 23.5 38t11.5 40v516q0 12 -7 43t-20 43l-180 180q-2 2 -26.5 13.5t-32.5 11.5h-723q-41 0 -72 -37t-31 -74v-860zM182 942q0 23 6.5 51.5t20.5 54t34.5 43t51.5 17.5h610 q20 0 41 -13.5t37 -33t25.5 -42t9.5 -40.5v-567q0 -18 -9.5 -41t-25.5 -42.5t-36.5 -32.5t-41.5 -13h-446q-18 0 -39 11t-38 28.5t-28.5 37t-11.5 35.5v250q0 35 -24.5 63.5t-55.5 60.5t-55.5 72t-24.5 101zM225 885q0 -29 23.5 -54.5t52.5 -53t52.5 -56.5t23.5 -59v-250 q0 -12 9 -28.5t22.5 -31t30 -25t28.5 -10.5h422q35 0 64.5 36t29.5 69v438q0 37 -30.5 74t-71.5 37h-559q-31 0 -64 -26.5t-33 -59.5z" />
<glyph unicode="e" horiz-adv-x="1177" d="M20 317v664q0 12 11.5 39t23.5 39l189 188q4 4 28.5 15.5t32.5 11.5h758q12 0 28.5 -7t31 -17.5t24.5 -25t10 -28.5v-145q0 -12 -12 -24.5t-28.5 -24t-32 -18.5t-21.5 -7h-741q-14 0 -31 -8t-31 -21.5t-23.5 -30t-9.5 -30.5q0 -12 8.5 -28.5t20.5 -30t27.5 -22.5t29.5 -9 q739 0 749.5 -5.5t23 -11.5t24.5 -12l20 -10q2 -2 5.5 -5t3.5 -5q4 -6 18 -33v-148q0 -10 -11 -22.5t-26.5 -23.5t-29 -19t-19.5 -8h-577q-16 0 -35 -8.5t-34 -21.5t-25.5 -29.5t-10.5 -35.5q0 -27 25.5 -56.5t54.5 -29.5h567q10 0 30.5 -7t40 -18.5t35 -26.5t15.5 -30v-145 q0 -16 -14.5 -30.5t-33.5 -25t-39.5 -16.5t-33.5 -6h-714q-23 0 -50.5 13.5t-44.5 29.5l-172 172q-12 12 -23.5 44t-11.5 50zM55 430q0 -10 9.5 -35.5t15.5 -34.5l182 -180q2 -4 26.5 -15t33.5 -11h722q23 0 50.5 17t27.5 44q0 10 -11 21.5t-26.5 20.5t-32 15.5t-24.5 6.5 h-569q-33 0 -54.5 19t-35 47t-18.5 58.5t-5 53.5q0 6 1 29.5t1 29.5q8 18 18.5 38.5t25 38t33.5 29t44 11.5h567q10 0 25.5 6t29 15.5t23.5 20.5t10 21t-10 21.5t-23.5 22t-28.5 16.5t-26 6h-731q-4 0 -27.5 11t-33.5 18q-41 29 -51.5 68.5t-10.5 82.5q0 23 6.5 52.5 t20.5 56t34.5 45t51.5 18.5h733q10 0 25.5 6t31 15.5t26.5 22.5t11 26q0 23 -29.5 39t-48.5 16h-731l-51 -27l-182 -180q-6 -8 -15.5 -32.5t-9.5 -34.5v-535z" />
<glyph unicode="f" horiz-adv-x="1177" d="M20 154v827q0 12 11.5 39t23.5 39l189 188q4 4 28.5 15.5t32.5 11.5h758q12 0 28.5 -7t31 -17.5t24.5 -25t10 -28.5v-145q0 -12 -12 -24.5t-28.5 -24t-32 -18.5t-21.5 -7h-741q-14 0 -31 -8t-31 -21.5t-23.5 -30t-9.5 -30.5q0 -12 8.5 -28.5t20.5 -30t27.5 -22.5t29.5 -9 q739 0 749.5 -5.5t23 -11.5t24.5 -12l20 -10q2 -2 5.5 -5t3.5 -5q4 -6 18 -33v-148q0 -10 -11 -22.5t-26.5 -23.5t-29 -19t-19.5 -8h-577q-16 0 -37 -10.5t-38.5 -26t-29.5 -33.5t-12 -37v-242q0 -35 -17.5 -61.5t-44 -42.5t-58.5 -24.5t-60 -8.5q-33 0 -65 8.5t-56.5 26.5 t-40 46t-15.5 65zM55 266q0 -31 14.5 -52t36 -34.5t48 -19.5t51.5 -6q20 0 43.5 6t45 19.5t36 32.5t14.5 46v258q0 14 13.5 34.5t34 39t41 31t36.5 12.5h567q10 0 25.5 6t29 15.5t23.5 20.5t10 21t-10 21.5t-23.5 22t-28.5 16.5t-26 6h-731q-4 0 -27.5 11t-33.5 18 q-41 29 -51.5 68.5t-10.5 82.5q0 23 6.5 52.5t20.5 56t34.5 45t51.5 18.5h733q10 0 25.5 6t31 15.5t26.5 22.5t11 26q0 23 -29.5 39t-48.5 16h-731l-51 -27l-182 -180q-6 -8 -15.5 -32.5t-9.5 -34.5v-699z" />
<glyph unicode="g" horiz-adv-x="1202" d="M20 317v662q0 14 11.5 41t23.5 37l189 190q4 2 28.5 13.5t32.5 11.5h756q12 0 28.5 -7.5t31 -17.5t24.5 -24.5t10 -28.5v-145q0 -10 -12.5 -23.5t-28.5 -25t-31.5 -18.5t-21.5 -7h-739q-14 0 -31 -8.5t-31 -21.5t-24.5 -29.5t-10.5 -30.5q0 -29 23.5 -54.5t52.5 -53 t52.5 -56.5t23.5 -59v-250q0 -12 9 -28.5t22.5 -31t30 -25t28.5 -10.5h422q14 0 29.5 8.5t27.5 20.5t20.5 27.5t8.5 29.5q0 31 -21.5 48.5t-52.5 26.5t-68.5 14.5t-68.5 13.5t-52.5 21.5t-21.5 39.5v146q0 16 11.5 30.5t29 24.5t34.5 16.5t30 6.5h258q27 0 50 -13.5 t40.5 -35t28 -47t10.5 -50.5v-319q0 -25 -12.5 -59t-30.5 -52l-164 -164q-16 -16 -48 -29.5t-55 -13.5h-542q-25 0 -55.5 12.5t-47.5 30.5l-172 172q-12 12 -23.5 44t-11.5 50zM55 430q0 -10 9.5 -35.5t15.5 -34.5l182 -180q2 -4 26.5 -15t33.5 -11h559q8 0 32.5 11t26.5 15 l172 172q14 14 22.5 38t12.5 40v94q0 29 -1 69t-10.5 76t-33 61.5t-68.5 25.5h-231q-23 0 -50.5 -18.5t-27.5 -43.5q0 -27 21.5 -37t54.5 -15t70.5 -11t70.5 -23.5t54.5 -53.5t21.5 -99q0 -23 -6 -52.5t-19.5 -56.5t-35 -45t-52.5 -18h-446q-18 0 -39 11t-38 28.5t-28.5 37 t-11.5 35.5v250q0 35 -24.5 63.5t-55.5 60.5t-55.5 72t-24.5 101q0 23 6.5 52.5t20.5 56t34.5 45t51.5 18.5h731q10 0 26.5 6t32 15.5t26.5 21.5t11 25q0 23 -29.5 39t-48.5 16h-731l-51 -25l-182 -180q-6 -8 -15.5 -33.5t-9.5 -35.5v-533z" />
<glyph unicode="h" horiz-adv-x="1202" d="M20 154v981q0 33 18.5 62.5t41.5 49.5q4 0 17.5 1t17.5 1q35 0 66.5 -29.5t31.5 -68.5v-248q0 -14 9 -32.5t23.5 -34t33 -26.5t34.5 -11h576q14 0 31.5 11t33 27.5t24.5 34t9 31.5q0 258 12.5 278.5t18.5 30.5q16 25 26.5 30t38.5 5q43 0 71 -33.5t28 -78.5v-971 q0 -43 -26 -87t-73 -44q-35 0 -65.5 30.5t-30.5 65.5v250q0 20 -12 40.5t-30.5 36t-41 24.5t-41.5 9h-368q-18 0 -39 -9t-38.5 -23.5t-28.5 -32.5t-11 -37v-242q0 -35 -17.5 -61.5t-44 -42.5t-58.5 -24.5t-60 -8.5q-33 0 -65 9.5t-56.5 26.5t-40 45t-15.5 65zM55 266 q0 -31 14.5 -52t36 -34.5t48 -19.5t51.5 -6q20 0 43.5 6t44 19.5t35 32.5t14.5 46v258q0 16 13.5 35.5t33 36t41 28t37.5 11.5h430q20 0 43 -12.5t41 -32t29.5 -42t11.5 -42.5v-248q0 -23 20.5 -47.5t42.5 -24.5q29 0 45.5 32t16.5 56v852q0 25 -16.5 59.5t-45.5 34.5 q-23 0 -43 -24.5t-20 -44.5v-250q0 -20 -11.5 -43t-29.5 -42.5t-40.5 -31.5t-43.5 -12h-592q-20 0 -42.5 12t-41 31.5t-30 42t-11.5 43.5v250q0 23 -21 47t-44 24q-29 0 -44.5 -31.5t-15.5 -56.5v-860z" />
<glyph unicode="i" horiz-adv-x="393" d="M20 145v996q0 41 28 73.5t67 32.5q35 0 66.5 -29.5t31.5 -68.5v-248q0 -33 24.5 -61.5t55.5 -58t55.5 -60.5t24.5 -70v-497q0 -37 -15.5 -65t-40 -45t-56.5 -26.5t-64 -9.5q-31 0 -62 8.5t-56.5 24.5t-42 42t-16.5 62zM55 258q0 -27 12.5 -46t33 -32.5t43 -19.5t44.5 -6 q25 0 51.5 5t48 18t36 34.5t14.5 54.5v377q0 37 -24.5 66.5t-54.5 57.5t-54.5 55.5t-24.5 60.5v250q0 23 -20 50t-45 27q-29 0 -44.5 -30.5t-15.5 -55.5v-866z" />
<glyph unicode="j" horiz-adv-x="1202" d="M19 360q1 25 1 43v86q8 35 19.5 63t40.5 50q4 0 17.5 1t17.5 1q39 0 58.5 -21.5t28.5 -53t13 -68.5t12.5 -69t25.5 -53.5t52 -21.5h428q12 0 28.5 10.5t31 26t23.5 30.5t9 28v731q0 39 31 72.5t68 33.5q18 0 35.5 -9t31 -24.5t22.5 -35t9 -37.5v-250q0 -25 24.5 -51.5 t55.5 -57t55.5 -65.5t24.5 -74v-328q0 -23 -13.5 -54.5t-29.5 -47.5l-164 -164q-16 -16 -48 -29.5t-55 -13.5h-542q-25 0 -55.5 12.5t-47.5 30.5l-172 172q-16 16 -23 39t-10 48q-3 20 -3 40v10zM55 455q0 -23 4 -50.5t21 -44.5l182 -180q2 -4 26.5 -15t33.5 -11h559 q8 0 32.5 11t26.5 15l172 172q12 12 23.5 38t11.5 40v205q0 37 -24.5 68.5t-55.5 62.5t-55.5 59.5t-24.5 59.5v250q0 23 -19.5 50t-43.5 27q-25 0 -45.5 -27.5t-20.5 -49.5v-732q0 -18 -11 -39.5t-27.5 -39t-37 -29.5t-39.5 -12h-448q-39 0 -60.5 21.5t-33 53t-16.5 68.5 t-11 68.5t-19.5 53t-39.5 21.5q-18 0 -29.5 -12t-19 -30.5t-9.5 -38t-2 -33.5z" />
<glyph unicode="k" horiz-adv-x="1202" d="M20 154v981q0 33 18.5 62.5t41.5 49.5q4 0 17.5 1t17.5 1q35 0 66.5 -29.5t31.5 -68.5v-248q0 -2 4 -9t8 -17.5t9.5 -19.5t9.5 -15q20 -29 50 -36t62 -7q23 0 53.5 4t49.5 22l422 412q10 10 24 10h25q18 0 39.5 -10t21.5 -33v-164l-231 -241q8 0 26.5 -1t39 -2t39 -3 t24.5 -2t18.5 -5.5t24.5 -11.5t22.5 -11t12.5 -7l180 -181q12 -12 23.5 -43.5t11.5 -50.5v-317q0 -43 -26 -87t-73 -44q-35 0 -65.5 30.5t-30.5 65.5v250q0 20 -12 40.5t-30.5 36t-41 24.5t-41.5 9h-368q-18 0 -39 -9t-38.5 -23.5t-28.5 -32.5t-11 -37v-242 q0 -35 -17.5 -61.5t-44 -42.5t-58.5 -24.5t-60 -8.5q-33 0 -65 9.5t-56.5 26.5t-40 45t-15.5 65zM55 266q0 -31 14.5 -52t36 -34.5t48 -19.5t51.5 -6q20 0 43.5 6t44 19.5t35 32.5t14.5 46v250q0 20 12.5 40.5t30.5 38t41 29t41 11.5h430q20 0 43 -12.5t41 -32t29.5 -42 t11.5 -42.5v-248q0 -23 20.5 -47.5t42.5 -24.5q29 0 45.5 32t16.5 56v207q0 16 -13.5 47t-21.5 39l-164 162q-10 10 -36.5 24.5t-39.5 14.5h-241q-2 0 -5 5t-3 9q0 2 -1 13.5t-1 15.5t2 22l317 318q12 12 15 19t3 20q0 16 -10 24t-26 8q-4 0 -9.5 -1t-7.5 -1l-420 -413 q-27 -25 -58.5 -30t-66.5 -5q-29 0 -59.5 7t-58 22.5t-45 40t-17.5 59.5v250q0 23 -21 47t-44 24q-29 0 -44.5 -31.5t-15.5 -56.5v-860z" />
<glyph unicode="l" horiz-adv-x="1177" d="M20 317v820q0 31 18.5 61.5t41.5 48.5q4 2 16 2h19q35 0 67.5 -29.5t32.5 -66.5v-250q0 -4 11.5 -27.5t17.5 -31.5q2 -4 16 -19.5t30.5 -33t31 -33t18.5 -19.5q4 -6 10 -17t12.5 -23.5t10.5 -23.5t4 -13v-248q0 -12 10 -29.5t23.5 -33t30 -27t28.5 -11.5h567 q10 0 30.5 -7t40 -18.5t35 -26.5t15.5 -30v-145q0 -16 -14.5 -30.5t-33.5 -25t-39.5 -16.5t-33.5 -6h-706q-25 0 -55.5 12.5t-47.5 30.5l-172 172q-12 12 -23.5 44t-11.5 50zM55 430q0 -10 9.5 -35.5t15.5 -34.5l182 -180q2 -4 26.5 -15t33.5 -11h722q23 0 50.5 17t27.5 44 q0 10 -11 21.5t-26.5 20.5t-32 15.5t-24.5 6.5h-569q-16 0 -36 12t-37 30.5t-29.5 38t-12.5 35.5v250q0 16 -14.5 42t-24.5 36q-6 6 -19.5 20.5t-28.5 31t-28.5 30.5t-19.5 20q0 4 -3 9.5t-5 9.5q-4 10 -21 51v250q0 20 -21 44.5t-44 24.5q-29 0 -44.5 -30.5t-15.5 -57.5 v-696z" />
<glyph unicode="m" horiz-adv-x="1202" d="M20 154v817q0 8 4.5 21.5t9.5 26.5t11 23.5t10 14.5l189 190q4 2 28.5 13.5t32.5 11.5h592q8 0 32.5 -11.5t28.5 -13.5l189 -190q4 -4 10 -14.5t11.5 -23.5t9.5 -26.5t4 -21.5v-817q0 -20 -7.5 -42t-20.5 -39.5t-32 -28.5t-39 -11q-35 0 -65.5 30.5t-30.5 65.5v731 q0 27 -13 48.5t-33.5 35.5t-46.5 21.5t-48 7.5q-27 0 -53.5 -7.5t-48 -22.5t-35 -37.5t-13.5 -55.5v-729q0 -16 -9 -31.5t-23.5 -28t-32 -20.5t-31.5 -8t-30.5 7t-31 19.5t-23.5 28.5t-9 33v729q0 33 -14.5 55.5t-36 37.5t-48 22.5t-51.5 7.5q-18 0 -41.5 -5t-43 -15.5 t-33 -27t-13.5 -40.5q0 -35 22.5 -59.5t50.5 -49t51.5 -51.5t23.5 -63v-517q0 -37 -16.5 -62.5t-41 -41.5t-56.5 -24.5t-62 -8.5q-33 0 -65 9.5t-56.5 26.5t-40 45t-15.5 65zM55 266q0 -31 14.5 -52t36 -34.5t48 -19.5t51.5 -6q20 0 43.5 6t44 19.5t33 32.5t12.5 46v387 q0 18 -11.5 40t-21.5 36q-6 6 -19.5 20.5t-28.5 32t-28.5 31.5t-19.5 20q-16 27 -21.5 55.5t-5.5 57.5q0 25 6.5 53.5t19.5 55t34.5 44t52.5 17.5h129q20 0 40.5 -14.5t38 -35t28 -45t10.5 -42.5v-731q0 -16 21.5 -39t37.5 -23q8 0 19.5 7.5t20.5 16.5t15.5 19t6.5 19v731 q0 18 10 42.5t26.5 45t37 35t40.5 14.5h129q20 0 41 -13.5t37 -33t27.5 -42t11.5 -40.5v-729q0 -23 20 -47.5t43 -24.5q29 0 45.5 32t16.5 56v688q0 12 -8.5 40t-18.5 38l-180 180q-2 2 -26.5 13.5t-32.5 11.5h-559q-8 0 -33 -11.5t-27 -13.5l-182 -180q0 -2 -3 -8l-5 -10 q-4 -10 -10.5 -29.5t-6.5 -21.5v-697z" />
<glyph unicode="n" horiz-adv-x="1202" d="M20 154v817q0 8 4.5 21.5t9.5 26.5t11 23.5t10 14.5l189 190q4 2 28.5 13.5t32.5 11.5h592q8 0 32.5 -11.5t28.5 -13.5l189 -190q4 -4 10 -14.5t11.5 -23.5t9.5 -26.5t4 -21.5v-817q0 -20 -7.5 -42t-20.5 -39.5t-32 -28.5t-39 -11q-35 0 -65.5 30.5t-30.5 65.5v739 q0 16 -10 35t-25.5 34t-35 24.5t-35.5 9.5h-559q-31 0 -64 -26.5t-33 -59.5q0 -35 22.5 -59.5t50.5 -49t51.5 -51.5t23.5 -63v-517q0 -37 -16.5 -62.5t-41 -41.5t-56.5 -24.5t-62 -8.5q-33 0 -65 9.5t-56.5 26.5t-40 45t-15.5 65zM55 266q0 -31 14.5 -52t36 -34.5t48 -19.5 t51.5 -6q20 0 43.5 6t44 19.5t33 32.5t12.5 46v387q0 18 -11.5 40t-21.5 36q-6 6 -19.5 20.5t-28.5 32t-28.5 31.5t-19.5 20q-16 27 -21.5 55.5t-5.5 57.5q0 25 6.5 53.5t19.5 55t34.5 44t52.5 17.5h610q20 0 41 -13.5t37 -33t27.5 -42t11.5 -40.5v-729q0 -23 20 -47.5 t43 -24.5q29 0 45.5 32t16.5 56v688q0 12 -8.5 40t-18.5 38l-180 180q-2 2 -26.5 13.5t-32.5 11.5h-559q-8 0 -33 -11.5t-27 -13.5l-182 -180q0 -2 -3 -8l-5 -10q-4 -10 -10.5 -29.5t-6.5 -21.5v-697z" />
<glyph unicode="o" horiz-adv-x="1202" d="M20 317v654q0 8 4.5 21.5t9.5 26.5t11 23.5t10 14.5l189 190q4 2 28.5 13.5t32.5 11.5h592q8 0 32.5 -11.5t28.5 -13.5l189 -190q4 -4 10 -14.5t11.5 -23.5t9.5 -26.5t4 -21.5v-654q0 -23 -13.5 -54.5t-29.5 -47.5l-164 -164q-16 -16 -48 -29.5t-55 -13.5h-542 q-4 0 -20.5 3t-22.5 5l-31 15.5t-29 19.5l-164 164q-18 16 -30.5 47t-12.5 55zM55 430q0 -10 9.5 -35.5t15.5 -34.5l182 -180q0 -2 13.5 -8t19.5 -8q4 -4 14 -7t13 -3h559q8 0 32.5 11t26.5 15l172 172q12 12 23.5 38t11.5 40v533q0 2 -6 21.5t-11 29.5l-5 10t-5 8l-180 180 q-2 2 -26.5 13.5t-32.5 11.5h-559q-8 0 -33 -11.5t-27 -13.5l-182 -180q0 -2 -3 -8l-5 -10q-4 -10 -10.5 -29.5t-6.5 -21.5v-533zM184 412v577q0 18 10.5 39t26 38t35.5 29.5t39 12.5h448q51 0 73 -32t31 -76t15 -89t27 -69q2 -4 16.5 -19.5t30.5 -32t29.5 -32t17.5 -19.5 q2 -2 12.5 -21.5t14.5 -29.5q2 -4 5 -14t3 -12v-250q0 -18 -9.5 -41t-25.5 -42.5t-36.5 -32.5t-41.5 -13q-610 0 -620.5 3t-14.5 7q-33 12 -59.5 48t-26.5 71zM219 422q0 -16 8.5 -34.5t21.5 -34t29.5 -26t34.5 -10.5h576q31 0 49 17.5t29.5 43t14.5 53t3 50.5q0 31 -2 62.5 t-25 58.5q-4 4 -18 19.5t-29.5 32t-30 31.5t-18.5 20q-14 18 -21 44.5t-12.5 56.5t-10.5 59.5t-16 53t-31.5 38t-53.5 14.5h-395q-18 0 -36 -9.5t-33 -24.5t-24.5 -32.5t-9.5 -36.5v-446z" />
<glyph unicode="p" horiz-adv-x="1202" d="M20 154v981q0 20 10.5 44.5t27 45t39 34t44.5 13.5h756q8 0 32.5 -11.5t28.5 -13.5l189 -190q4 -4 10 -14.5t11.5 -23.5t9.5 -26.5t4 -21.5v-172q0 -29 -16.5 -60.5t-35.5 -50.5l-147 -147q-4 -2 -12 -8.5t-13 -8.5q-12 -6 -31.5 -18t-21.5 -12h-411q-16 0 -37 -10.5 t-38.5 -26t-29.5 -33.5t-12 -37v-250q0 -4 -14.5 -32.5t-24.5 -45.5q-18 -33 -62.5 -42t-78.5 -9q-33 0 -65 9.5t-56.5 26.5t-40 45t-15.5 65zM55 266q0 -31 14.5 -52t36 -34.5t48 -19.5t51.5 -6q20 0 43.5 6t44 19.5t35 32.5t14.5 46v250q0 18 12.5 39.5t32 40t41 31 t39.5 12.5h405q12 0 39 14t37 25l164 164q18 18 26.5 49.5t8.5 58.5q0 23 -5 48.5t-22 41.5l-180 180q-2 2 -26.5 13.5t-32.5 11.5h-723q-41 0 -72 -37t-31 -74v-860zM182 942q0 23 6.5 51.5t20.5 54t34.5 43t51.5 17.5h610q31 0 52.5 -18.5t35 -44t19.5 -55t6 -54.5 t-6 -55.5t-20.5 -56t-38 -43t-56.5 -17.5h-592q-35 0 -58.5 18.5t-37.5 45t-20.5 57t-6.5 57.5zM225 885q0 -14 8.5 -29.5t21.5 -28t28.5 -20.5t29.5 -8h576q29 0 57.5 28.5t28.5 57.5q0 16 -9.5 31.5t-23.5 27.5t-30.5 19.5t-30.5 7.5h-559q-31 0 -64 -26.5t-33 -59.5z" />
<glyph unicode="q" horiz-adv-x="1202" d="M20 317v654q0 8 4.5 21.5t9.5 26.5t11 23.5t10 14.5l189 190q4 2 28.5 13.5t32.5 11.5h592q8 0 32.5 -11.5t28.5 -13.5l189 -190q4 -4 10 -14.5t11.5 -23.5t9.5 -26.5t4 -21.5v-576q-4 -8 -9.5 -34.5t-9.5 -34.5v-4q0 -29 9.5 -55.5t9.5 -59.5q0 -121 -53.5 -160 t-165.5 -39h-70q-33 0 -64 17q-12 6 -32.5 20t-36.5 14t-31.5 -8t-31 -17t-32 -17.5t-34.5 -8.5h-301q-25 0 -55.5 12.5t-47.5 30.5l-164 164q-18 16 -30.5 47t-12.5 55zM55 430q0 -2 6.5 -21.5t10.5 -29.5q2 -4 5 -10.5t3 -8.5l182 -180q2 -4 26.5 -15t33.5 -11h325 q16 0 29.5 7t26 15t25.5 15.5t30 7.5q18 0 33.5 -7.5t30 -15.5t28.5 -15t31 -7h163q35 0 65 31.5t38 64.5v6q0 11 -5 24q-7 15 -18.5 30.5t-20.5 31t-9 31.5q0 20 8 36.5t18 34t18.5 35t8.5 37.5v447q0 2 -6 21.5t-11 29.5l-5 10t-5 8l-180 180q-2 2 -26.5 13.5t-32.5 11.5 h-559q-8 0 -33 -11.5t-27 -13.5l-182 -180q0 -2 -3 -8l-5 -10q-4 -10 -10.5 -29.5t-6.5 -21.5v-533zM184 412v577q0 18 10.5 39t26 38t35.5 29.5t39 12.5h610q20 0 41 -13.5t37 -33t25.5 -42t9.5 -40.5v-412q0 -2 -3 -12t-5 -14q-25 -55 -55.5 -72.5t-65.5 -23t-72 -9.5 t-74 -33q-4 -4 -19 -17t-32.5 -29.5t-33 -31t-19.5 -16.5q-4 -4 -27.5 -15t-31.5 -11q-285 0 -295.5 3t-14.5 7q-33 12 -59.5 48t-26.5 71zM219 422q0 -33 19.5 -59.5t48.5 -36.5q4 -2 14 -5.5t12 -3.5h258q4 0 23.5 10.5t28.5 16.5q4 2 19 16.5t31.5 31t32 29.5t19.5 17 q27 20 71 26.5t85 14.5t71.5 29.5t30.5 75.5v284q0 18 -9 36t-24.5 33t-33 24.5t-35.5 9.5h-559q-18 0 -36 -9.5t-33 -24.5t-24.5 -32.5t-9.5 -36.5v-446z" />
<glyph unicode="r" horiz-adv-x="1202" d="M20 154v981q0 20 10.5 44.5t27 45t39 34t44.5 13.5h592q8 0 33 -11.5t29 -13.5l196 -198q2 -2 7.5 -11.5t10.5 -21.5t9 -23.5t4 -13.5v-248q0 -25 24.5 -51.5t55.5 -57t55.5 -65.5t24.5 -76v-327q0 -20 -7.5 -42t-20.5 -39.5t-32 -28.5t-39 -11q-35 0 -65.5 30.5 t-30.5 65.5v250q0 20 -11 40.5t-29.5 36t-41 24.5t-43.5 9h-368q-18 0 -39 -9t-38.5 -23.5t-28.5 -32.5t-11 -37v-250q0 -4 -14.5 -32.5t-24.5 -45.5q-18 -33 -62.5 -42t-78.5 -9q-33 0 -65 9.5t-56.5 26.5t-40 45t-15.5 65zM55 266q0 -31 14.5 -52t36 -34.5t48 -19.5 t51.5 -6q20 0 43.5 6t44 19.5t35 32.5t14.5 46v250q0 18 12.5 39.5t32 39t41 29t39.5 11.5h430q20 0 43 -12.5t41 -32t29.5 -42t11.5 -42.5v-248q0 -23 20.5 -47.5t42.5 -24.5q14 0 25.5 9.5t20 23.5t12.5 28.5t4 26.5v207q0 39 -24.5 70.5t-55.5 59.5t-55.5 56.5 t-24.5 61.5v250q0 8 -11 30.5t-18 30.5l-182 180l-51 25h-567q-41 0 -72 -37t-31 -74v-860zM182 942q0 23 6.5 51.5t20.5 54t34.5 43t51.5 17.5h448q33 0 54.5 -17.5t35 -43t18.5 -54t5 -51.5q0 -27 -6 -57.5t-20.5 -57t-38 -45t-58.5 -18.5h-428q-35 0 -58.5 18.5t-37.5 45 t-20.5 57t-6.5 57.5zM225 885q0 -29 30 -57.5t58 -28.5h412q14 0 29.5 7t29 19.5t21.5 26.5t8 29q0 35 -31.5 62.5t-64.5 27.5h-395q-31 0 -64 -26.5t-33 -59.5z" />
<glyph unicode="s" horiz-adv-x="1202" d="M20 635v336q0 8 4.5 21.5t9.5 26.5t11 23.5t10 14.5l189 190q4 2 28.5 13.5t32.5 11.5h592q8 0 32.5 -11.5t28.5 -13.5l197 -198v-156q0 -29 -22.5 -40t-45.5 -11q-35 0 -59 20.5t-48 44t-48.5 44t-59.5 20.5h-550q-31 0 -64 -26.5t-33 -59.5q0 -12 9.5 -27.5t22.5 -30 t28.5 -23.5t27.5 -9h576q10 0 38.5 -14.5t39.5 -24.5l180 -181q16 -16 23.5 -38.5t10.5 -46.5q2 -18 2 -35v-13q-1 -24 -1 -43q0 -43 -4 -96t-39 -88l-164 -164q-18 -18 -48 -30.5t-55 -12.5h-542q-25 0 -55.5 12.5t-47.5 30.5l-180 180v164q0 10 15.5 24.5t17.5 18.5h35 q14 0 27.5 1t23.5 -9l104 -94q0 -2 6.5 -5t10.5 -5t14 -5.5t12 -3.5h420q27 0 53.5 29t26.5 53q0 18 -11 36t-28.5 31t-37 20.5t-36.5 7.5h-567q-20 0 -39.5 15t-36 36.5t-27 46t-10.5 43.5zM55 748q0 -18 10.5 -40t25.5 -38.5t34.5 -27.5t40.5 -11h567q4 0 27.5 -11.5 t34.5 -17.5q41 -29 51 -67.5t10 -83.5q0 -25 -5 -53.5t-18.5 -54.5t-35 -43t-54.5 -17h-448q-4 0 -14.5 5t-22.5 12t-23.5 14.5t-15.5 11.5q-6 4 -18.5 15t-25.5 23.5t-25.5 23.5t-16.5 15q-4 0 -10 1.5t-8 1.5q-14 0 -24.5 -8.5t-10.5 -24.5v-4q2 -4 5 -9.5t5 -7.5 l172 -172q2 -4 26.5 -15t33.5 -11h559q8 0 32.5 11t26.5 15l180 180q16 16 21.5 42t5.5 49q0 25 -8.5 57.5t-26.5 50.5l-164 162q-10 10 -36.5 24.5t-39.5 14.5h-567q-4 0 -27.5 12t-33.5 19q-41 29 -51.5 67.5t-10.5 83.5q0 23 6.5 51.5t20.5 54t34.5 43t51.5 17.5h610 q29 0 50.5 -18.5t41 -42t41 -42t49.5 -18.5q14 0 24.5 7t10.5 24q0 2 -2 4q0 4 -3 10t-5 8l-172 172q-2 2 -26.5 13.5t-32.5 11.5h-559q-8 0 -33 -11.5t-27 -13.5l-182 -180q0 -2 -3 -8l-5 -10q-4 -10 -10.5 -29.5t-6.5 -21.5v-215z" />
<glyph unicode="t" horiz-adv-x="1150" d="M20 1049v155q0 12 11.5 24.5t27 22t30.5 15.5t26 6h921q10 0 25.5 -6t31 -15.5t26.5 -21.5t11 -25v-155q0 -10 -12 -23.5t-28.5 -25t-32 -18.5t-21.5 -7h-250q-16 0 -33.5 -8.5t-34 -20.5t-26.5 -28.5t-10 -32.5q0 -33 22.5 -57.5t50 -48t51 -49t23.5 -60.5v-541 q0 -33 -17 -55.5t-43 -36.5t-56.5 -21.5t-55.5 -7.5q-43 0 -80.5 12.5t-66.5 47.5q-6 10 -17.5 29.5t-11.5 23.5v731q0 18 -10 39.5t-27.5 40t-38 31t-40.5 12.5h-250q-6 0 -21.5 7t-32 18.5t-29 24.5t-12.5 24zM53 1178q0 -10 11.5 -21.5t28 -21t31.5 -15.5t26 -6h249 q18 0 38 -16.5t37.5 -39t28.5 -47t11 -40.5v-731q0 -23 16.5 -39.5t39 -26.5t47 -15t40.5 -5q20 0 44 5t44.5 16t35 29.5t14.5 45.5v403q0 33 -25 61.5t-53.5 59.5t-53 70t-24.5 94q0 41 13.5 80t47.5 65q10 6 29 18.5t23 12.5h249q8 0 24.5 6t32 15.5t27 20.5t11.5 22 q0 27 -28 44t-50 17h-885q-23 0 -51.5 -17t-28.5 -44z" />
<glyph unicode="u" horiz-adv-x="1202" d="M20 317v818q0 47 29 79.5t74 32.5q31 0 60.5 -30.5t29.5 -65.5v-248q0 -2 4 -10t8 -18.5t9.5 -19.5t9.5 -13q2 -4 16 -19.5t30.5 -32t30 -32t17.5 -19.5q4 -6 11 -18t13.5 -24.5t10.5 -22.5t4 -12v-250q0 -12 9 -28.5t22.5 -31t30 -25t28.5 -10.5h422q16 0 33.5 10.5 t32 26t23.5 34t9 34.5v729q0 2 12.5 25.5t18.5 35.5q14 25 25.5 30t39.5 5q43 0 71 -33.5t28 -78.5v-818q0 -23 -13.5 -54.5t-29.5 -47.5l-164 -164q-18 -18 -48 -30.5t-55 -12.5h-542q-25 0 -55.5 12.5t-47.5 30.5l-164 164q-18 16 -30.5 47t-12.5 55zM55 430 q0 -2 6.5 -21.5t10.5 -29.5q2 -4 5 -10.5t3 -8.5l182 -180q2 -4 26.5 -15t33.5 -11h559q8 0 32.5 11t26.5 15l180 180q2 2 5 8.5t5 10.5q4 10 10.5 29.5t6.5 21.5v696q0 25 -16.5 55.5t-45.5 30.5q-23 0 -43 -24.5t-20 -44.5v-731q0 -18 -11.5 -41t-27.5 -42.5t-36.5 -32.5 t-41.5 -13h-446q-16 0 -37 11t-38 27.5t-29.5 37t-12.5 36.5v258q0 2 -5 12.5t-11.5 20.5t-12.5 20.5t-8 14.5q-6 6 -19.5 20.5t-28.5 32t-28.5 31.5t-19.5 20q0 2 -3 8.5t-5 8.5q-4 10 -21 51v250q0 23 -21 47t-44 24q-12 0 -23.5 -9t-20 -23.5t-12.5 -28.5t-4 -27v-696z " />
<glyph unicode="v" horiz-adv-x="1202" d="M20 635v500q0 39 16.5 65.5t41 43t56.5 23.5t63 7q27 0 58.5 -7t59 -22.5t45 -41t17.5 -60.5v-731q0 -12 9 -28.5t22.5 -31t30 -25t28.5 -10.5h266q39 0 58.5 32t28.5 74t15.5 83t18.5 61q6 6 19.5 20.5t29 31t28.5 31t17 20.5q10 10 24.5 36.5t14.5 41.5v403 q0 35 31 65.5t61 30.5q45 0 74 -32.5t29 -79.5v-500q0 -29 -15.5 -55.5t-36 -50t-42 -45t-35.5 -38.5q-20 -25 -24.5 -53t-7.5 -59t-9 -59.5t-29 -51.5l-180 -180q-8 -8 -39 -21.5t-47 -13.5h-232q-8 0 -21 4t-26.5 9.5t-25 11.5t-13.5 10l-180 180q-18 18 -25.5 43 t-10.5 49.5t-5 49t-12 47.5q-12 31 -37 55.5t-48.5 50t-42 53t-18.5 64.5zM55 756q0 -35 18.5 -63.5t42 -54.5t48 -51.5t37.5 -54.5q8 -18 10 -41.5l4 -47t7 -45t22 -38.5l180 -180l53 -26h248l51 26l182 180q20 20 25.5 47t6.5 54.5t5 55.5t23 50q12 16 34.5 38t43 46.5 t36 51t15.5 53.5v370q0 25 -16.5 55.5t-45.5 30.5q-23 0 -43 -24.5t-20 -44.5v-412q0 -4 -4 -14t-10.5 -22.5t-13.5 -24t-11 -17.5q-4 -4 -17.5 -19.5t-29.5 -32.5t-30.5 -31.5t-16.5 -18.5q-2 -2 -8.5 -15.5t-8.5 -19.5q-10 -25 -14 -64.5t-14 -77.5t-31.5 -64.5 t-69.5 -26.5h-284q-16 0 -37 11t-38 27.5t-29.5 37t-12.5 36.5v740q0 25 -14.5 44t-35 32.5t-44 20.5t-43.5 7q-25 0 -51.5 -6t-48 -19.5t-36 -35t-14.5 -52.5v-370z" />
<glyph unicode="w" horiz-adv-x="1202" d="M20 317v818q0 47 29 79.5t74 32.5q31 0 60.5 -30.5t29.5 -65.5v-248q0 -2 4 -10t8 -18.5t9.5 -19.5t9.5 -13q2 -4 16 -19.5t30.5 -32t30 -32t17.5 -19.5q4 -6 11 -18t13.5 -24.5t10.5 -22.5t4 -12v-250q0 -6 6 -19.5t16.5 -26t21.5 -21.5t21 -9q12 0 23.5 11t21 26.5 t14.5 31t5 25.5v731q0 39 31.5 62.5t62.5 23.5q20 0 36.5 -4t29.5 -22q2 -6 8 -15.5t10 -18.5t12 -26v-731q0 -31 13.5 -52.5t35 -34.5t47 -19.5t50.5 -6.5q23 0 48 5.5t46.5 16.5t36 31.5t14.5 51.5v729q0 35 31 65.5t61 30.5q45 0 74 -32.5t29 -79.5v-826 q0 -23 -13.5 -50.5t-29.5 -43.5l-164 -164q-18 -18 -48 -30.5t-55 -12.5h-542q-23 0 -54.5 13.5t-48.5 29.5l-164 164q-16 16 -29.5 48t-13.5 54zM55 430q0 -2 6.5 -21.5t10.5 -29.5q2 -4 5 -10.5t3 -8.5l182 -180q2 -4 26.5 -15t33.5 -11h559q8 0 32.5 11t26.5 15l180 180 q2 2 5 8.5t5 10.5q4 10 10.5 29.5t6.5 21.5v696q0 25 -16.5 55.5t-45.5 30.5q-23 0 -43 -24.5t-20 -44.5v-740q0 -16 -11.5 -37.5t-27.5 -40t-37.5 -30.5t-40.5 -12h-129q-20 0 -40.5 14t-37 35.5t-26.5 46t-10 43.5v729q0 16 -22 38.5t-38 22.5q-23 0 -42 -16t-19 -45v-729 q0 -20 -8.5 -42t-22.5 -40t-33.5 -29.5t-40.5 -11.5q-14 0 -30.5 9t-31 23.5t-23.5 32t-9 31.5v258q0 2 -5 12.5t-11.5 20.5t-12.5 20.5t-8 14.5q-6 6 -19.5 20.5t-28.5 32t-28.5 31.5t-19.5 20q0 2 -3 8.5t-5 8.5q-4 10 -21 51v250q0 23 -21 47t-44 24q-12 0 -23.5 -9 t-20 -23.5t-12.5 -28.5t-4 -27v-696z" />
<glyph unicode="x" horiz-adv-x="1202" d="M20 154v172q0 8 4.5 21t9.5 26.5t11 24t10 14.5l219 229l-211 219q-16 16 -29.5 48t-13.5 55v172q0 47 28 79.5t73 32.5q49 0 65.5 -28.5t20.5 -68.5l8 -80t29 -64l180 -181l53 -26h248l51 26l182 181q20 23 25.5 62.5t10.5 79.5t21.5 69.5t63.5 29.5q45 0 74 -32.5 t29 -79.5v-181q0 -23 -13.5 -50t-29.5 -44l-211 -219l219 -229q10 -10 21.5 -39t13.5 -47v-86q0 -25 -1 -61t-10.5 -68.5t-29 -55t-58.5 -22.5q-49 0 -66.5 30.5t-24.5 73.5t-13 87t-31 69l-162 162q-14 14 -40.5 24t-45.5 10h-206q-18 0 -39 -9t-38.5 -23.5t-28.5 -32.5 t-11 -37v-250q0 -35 -18.5 -58.5t-46 -39.5t-58.5 -23.5t-57 -7.5q-33 0 -65 9.5t-56.5 27.5t-40 45t-15.5 64zM53 293q0 -74 42 -106.5t110 -32.5q20 0 43.5 6t44 19.5t35 32.5t14.5 46v250q0 18 12.5 38.5t32 38t41 30t39.5 12.5h266q10 0 34 -11.5t28 -13.5l180 -172 q23 -23 31 -64.5t15 -82.5t20.5 -73t43.5 -32q18 0 30.5 13.5t19 32t9.5 39t3 34.5q0 23 -5 48.5t-22 41.5l-258 266q-6 6 -7 19.5t-1 23.5t1 22.5t7 20.5l258 267q16 16 21.5 43.5t5.5 50.5q0 14 -3 33.5t-9.5 37t-18.5 29.5t-31 12q-29 0 -42 -30.5t-22 -72.5t-19.5 -86 t-34.5 -69l-148 -147q-16 -10 -39.5 -26.5t-46.5 -16.5h-266q-23 0 -50.5 18.5t-43.5 34.5q-8 6 -27.5 25.5t-41 42t-41 42l-27.5 27.5q-25 25 -35.5 69t-19.5 87t-22.5 73.5t-43.5 30.5q-18 0 -29.5 -12t-19 -30.5t-10.5 -38t-3 -33.5q0 -23 5 -50.5t22 -43.5l258 -267 q8 -8 9 -20t1 -23q0 -10 -1 -23.5t-9 -19.5l-258 -266q-16 -16 -21.5 -43.5t-5.5 -50.5z" />
<glyph unicode="y" horiz-adv-x="1038" d="M20 799v336q0 47 28 79.5t73 32.5q35 0 63.5 -28.5t28.5 -67.5v-250q0 -6 12.5 -29.5t18.5 -29.5l180 -180q16 -16 44 -21.5t50 -5.5q23 0 50.5 5t45.5 22l181 180l28 51v250q0 39 32 72.5t69 33.5q39 0 66.5 -32.5t27.5 -73.5v-361q0 -2 -3 -12t-5 -14 q-4 -10 -14.5 -29.5t-12.5 -21.5l-258 -267q-2 -2 -7 -11t-10.5 -21.5t-9.5 -23.5t-4 -13v-248q0 -4 -11 -23.5t-17 -29.5q-29 -35 -67 -47.5t-81 -12.5q-23 0 -53.5 7.5t-58 22.5t-46 37.5t-18.5 53.5v248q0 8 -11.5 30.5t-17.5 30.5l-241 250q-18 18 -35 50t-17 61z M55 920q0 -18 10.5 -45t24.5 -41l256 -267q6 -6 10 -18q4 -10 12.5 -29.5t8.5 -21.5v-248q0 -27 15.5 -45.5t37 -29.5t46 -16t42.5 -5q49 0 86 17t53 69q0 14 1 48t2.5 72.5t3.5 72.5t2 48q2 20 11 50t23 44l256 267q4 4 15.5 27.5t11.5 31.5v234q0 23 -17.5 50t-41.5 27 q-27 0 -46.5 -27.5t-19.5 -49.5v-250q0 -6 -6 -19.5t-15.5 -28t-18.5 -27.5t-15 -19q-8 -8 -28.5 -30t-44 -44.5t-44 -43t-29.5 -28.5q-35 -27 -67.5 -36t-73.5 -9q-25 0 -57.5 4t-50.5 23l-199 198l-8 17q-4 10 -21 51v250q0 20 -20 44.5t-43 24.5q-14 0 -25.5 -9 t-20 -22.5t-12.5 -27.5t-4 -27v-206z" />
<glyph unicode="z" horiz-adv-x="1202" d="M20 1044q0 29 3.5 68t14.5 75t35.5 60.5t67.5 24.5h920q12 0 28.5 -7.5t31 -17.5t24.5 -24.5t10 -28.5v-154l-713 -723h455q33 0 50.5 21.5t26.5 52.5t13 69t13.5 68.5t26.5 52t52 21.5q45 0 74 -32.5t29 -80.5v-335q0 -57 -44 -101.5t-104 -44.5h-868q-12 0 -32.5 6 t-40 16.5t-33 25t-13.5 30.5v154l721 731h-438q-35 0 -59.5 -20.5t-48 -44t-48 -44t-59.5 -20.5q-37 0 -56.5 21.5t-27.5 53t-9.5 66.5t-1.5 61zM53 1102q0 -14 3 -33.5t9.5 -38t18.5 -31t31 -12.5q29 0 50 16.5t40.5 37t40 40t49.5 27.5q20 0 65.5 1t101.5 2t117.5 2t118 2 t100.5 2t64 1h6q14 0 26.5 -12t12.5 -27q0 -8 -1 -15t-9 -15l-807 -818q-2 0 -5 -6l-5 -10v-4q0 -25 29.5 -41t48.5 -16h886q39 0 71 36.5t32 75.5v215q0 25 -16.5 55.5t-45.5 30.5q-37 0 -46 -37.5t-17 -87t-30.5 -95.5t-86.5 -64h-65q-43 0 -99.5 -1t-118 -2t-117.5 -2.5 t-101.5 -2.5t-65.5 -1h-4q-14 0 -26.5 12.5t-12.5 26.5q0 8 1 15.5t9 15.5l807 817q2 0 5 6.5t3 10.5l2 4q0 23 -29.5 39t-48.5 16h-886q-25 0 -44.5 -13.5t-32.5 -34t-20.5 -44t-7.5 -43.5z" />
<glyph unicode="&#xad;" horiz-adv-x="1513" d="M20 748v172q0 14 14.5 29.5t35 27.5t40 20.5t31.5 8.5h1231q12 0 31.5 -8.5t40 -20.5t35 -27.5t14.5 -29.5v-172q0 -18 -18.5 -36t-44 -31t-52 -20.5t-41.5 -7.5h-1161q-6 0 -26.5 3.5t-26.5 5.5q-10 4 -27.5 12t-34 19.5t-29 25.5t-12.5 29zM53 877q0 -7 2 -9 q10 -16 39 -42.5t56 -26.5h1206q14 0 32.5 8t34 20.5t26.5 27.5t11 30q0 14 -11 29.5t-26.5 28.5t-34 21.5t-32.5 8.5h-1206q-12 0 -29 -9.5t-32 -22.5t-25.5 -28.5t-10.5 -27.5v-8z" />
<glyph unicode="&#xc6;" horiz-adv-x="1546" d="M20 573q0 39 7.5 78t35.5 72q8 8 29 29.5t43.5 46t44 47t29.5 31.5q10 16 18.5 37.5t8.5 39.5v318q0 16 14 49t29 45l249 250q0 2 20.5 12t31.5 14q4 2 14 5.5t12 3.5h799q10 0 30.5 -8.5t40 -20.5t35 -27.5t15.5 -29.5v-172q0 -2 -3 -8.5t-5 -8.5q-23 -29 -42.5 -44 t-54.5 -25q-39 -12 -88 -14.5t-93 -11.5t-73.5 -36.5t-29.5 -93.5q0 -53 37.5 -88t85.5 -49q8 0 28.5 -1t43 -2t44 -3t29.5 -2q10 0 30.5 -8.5t40 -20.5t35 -27.5t15.5 -29.5v-172q0 -2 -3 -8.5t-5 -8.5q-23 -29 -42.5 -44t-54.5 -25q-39 -12 -88 -14.5t-93 -11.5t-73.5 -37 t-29.5 -93q0 -53 37.5 -88t85.5 -49q8 0 28.5 -1t43 -2t44 -3.5t29.5 -2.5q10 0 30.5 -8t40 -20.5t35 -27.5t15.5 -30v-172q0 -18 -18.5 -35.5t-44 -30.5t-52.5 -20.5t-41 -7.5h-309q-20 0 -51 13.5t-58.5 33t-47 44t-19.5 46.5v344q0 20 -11.5 47t-29 51.5t-40 41 t-44.5 16.5h-154q-16 0 -36.5 -12t-38 -28.5t-30 -37t-12.5 -35.5v-335q0 -49 -22.5 -85t-57 -58.5t-77.5 -34t-84 -11.5q-72 0 -134 30.5t-85 106.5q-4 94 -6.5 209t-2.5 219zM63 266q0 -16 12.5 -35.5t31 -37t40 -28.5t37.5 -11h129q27 0 51.5 15t44 37.5t31 50.5t11.5 52 v318q0 27 14 55.5t37.5 53t51.5 40t52 15.5h154q29 0 57.5 -18.5t51 -46.5t37 -59.5t14.5 -56.5v-344q0 -12 14 -31.5t33.5 -38t41 -30.5t35.5 -12h345q14 0 32.5 8t33.5 20.5t26.5 27.5t11.5 30q0 4 -1 10t-1 8q-20 35 -50 50.5t-66 21.5t-74.5 7t-74.5 10t-66 31.5 t-48 67.5q-16 41 -16 84v86q0 63 29.5 98.5t73.5 52.5t95.5 23.5t95.5 15.5t73.5 25.5t29.5 53.5q0 4 -1 10t-1 8q-20 35 -50 50.5t-66 21.5t-74.5 7t-74.5 10t-66 32t-48 68q-16 41 -16 84v90q0 61 29.5 95t73.5 51.5t95.5 23.5t95.5 15t73.5 25.5t29.5 53.5 q0 14 -11.5 29.5t-26.5 27.5t-33.5 20.5t-32.5 8.5h-775l-51 -25l-258 -250l-31 -51v-344q0 -18 -15 -56t-32 -56l-137 -138l-27 -51v-379zM451 1266q0 27 14 56.5t35.5 55t49.5 42t56 16.5h154q41 0 70.5 -23.5t48 -58.5t27.5 -75t9 -71q0 -33 -9 -72.5t-27.5 -74.5 t-48 -58.5t-70.5 -23.5h-154q-10 0 -33.5 11t-27.5 16q-37 20 -56.5 48.5t-27.5 62.5t-9 72t-1 77zM494 1151q0 -20 10 -45t26.5 -45.5t39 -33.5t44.5 -13h129q25 0 47.5 13t41 33.5t29.5 45t11 47.5q0 18 -9 42t-24.5 45.5t-36 35.5t-42.5 14h-154q-25 0 -45 -14 t-35.5 -34.5t-23.5 -45.5t-8 -45z" />
<glyph unicode="&#xe6;" horiz-adv-x="1177" d="M20 154v327q0 43 25 77t55.5 64.5t55 58.5t24.5 58v242q0 2 4 13.5t9.5 22.5t9.5 21.5t6 12.5l199 196q4 4 28.5 15.5t32.5 11.5h594q10 0 25.5 -6t31 -16.5t26.5 -22.5t11 -25v-153q0 -27 -21.5 -40.5t-52 -20.5t-68.5 -12t-69 -14.5t-52.5 -26.5t-21.5 -50 q0 -49 44.5 -66.5t98.5 -27t98 -21.5t44 -49v-156q0 -27 -21.5 -40t-52 -20t-68.5 -12.5t-69 -14.5t-52.5 -26.5t-21.5 -50.5q0 -43 34 -61t79 -27.5t91 -21.5t73 -43q2 -4 5 -10.5t3 -8.5v-145q0 -18 -14.5 -32.5t-33.5 -25t-39.5 -15.5t-33.5 -5h-223q-29 0 -55.5 12.5 t-48 33t-34.5 46t-13 54.5v241q0 25 -15.5 43.5t-37 30.5t-47 17.5t-44.5 5.5q-20 0 -44.5 -6.5t-46 -19.5t-36 -32.5t-14.5 -46.5v-250q0 -35 -18.5 -58.5t-46 -39.5t-58.5 -23.5t-57 -7.5q-31 0 -63 9.5t-57.5 27.5t-41 45t-15.5 64zM55 274q0 -66 46 -93t104 -27 q20 0 43.5 6t45 19.5t36 32.5t14.5 46v250q0 4 11.5 26.5t17.5 32.5q29 41 67.5 51.5t83.5 10.5q35 0 77 -8.5t65 -45.5q8 -10 19 -32.5t11 -26.5v-242q0 -18 9.5 -39.5t23.5 -40t33.5 -29.5t40.5 -11h241q23 0 50.5 17t27.5 44t-21.5 37t-54 15t-70.5 10.5t-71 23.5 t-54.5 54t-21.5 102q0 63 21.5 98t54.5 52.5t71 23.5t70.5 11t54 16.5t21.5 39.5q0 27 -21.5 38.5t-54 16.5t-70.5 10t-71 22.5t-54.5 53t-21.5 99.5q0 63 21.5 99t54.5 54.5t71 23.5t70.5 10t54 15.5t21.5 37.5t-27.5 44t-50.5 17h-567l-51 -27l-182 -180 q-6 -6 -17.5 -29.5t-11.5 -29.5v-250q0 -33 -24.5 -61.5t-55.5 -57.5t-55.5 -60.5t-24.5 -70.5v-199zM346 938q0 90 42 131t132 41t131 -41t41 -131q0 -86 -40 -130t-128 -44q-86 0 -132 44t-46 130zM389 883q0 -25 13.5 -41.5t33 -25.5t43 -13t41.5 -4q20 0 43 4t43.5 14 t34.5 26.5t16 43.5q2 23 -13 39t-36.5 26.5t-46 15.5t-39.5 5q-20 0 -43.5 -4t-43 -15.5t-33 -28.5t-13.5 -42z" />
<glyph unicode="&#x2000;" horiz-adv-x="827" />
<glyph unicode="&#x2001;" horiz-adv-x="1655" />
<glyph unicode="&#x2002;" horiz-adv-x="827" />
<glyph unicode="&#x2003;" horiz-adv-x="1655" />
<glyph unicode="&#x2004;" horiz-adv-x="551" />
<glyph unicode="&#x2005;" horiz-adv-x="413" />
<glyph unicode="&#x2006;" horiz-adv-x="275" />
<glyph unicode="&#x2007;" horiz-adv-x="275" />
<glyph unicode="&#x2008;" horiz-adv-x="206" />
<glyph unicode="&#x2009;" horiz-adv-x="331" />
<glyph unicode="&#x200a;" horiz-adv-x="91" />
<glyph unicode="&#x2010;" horiz-adv-x="1513" d="M20 748v172q0 14 14.5 29.5t35 27.5t40 20.5t31.5 8.5h1231q12 0 31.5 -8.5t40 -20.5t35 -27.5t14.5 -29.5v-172q0 -18 -18.5 -36t-44 -31t-52 -20.5t-41.5 -7.5h-1161q-6 0 -26.5 3.5t-26.5 5.5q-10 4 -27.5 12t-34 19.5t-29 25.5t-12.5 29zM53 877q0 -7 2 -9 q10 -16 39 -42.5t56 -26.5h1206q14 0 32.5 8t34 20.5t26.5 27.5t11 30q0 14 -11 29.5t-26.5 28.5t-34 21.5t-32.5 8.5h-1206q-12 0 -29 -9.5t-32 -22.5t-25.5 -28.5t-10.5 -27.5v-8z" />
<glyph unicode="&#x2011;" horiz-adv-x="1513" d="M20 748v172q0 14 14.5 29.5t35 27.5t40 20.5t31.5 8.5h1231q12 0 31.5 -8.5t40 -20.5t35 -27.5t14.5 -29.5v-172q0 -18 -18.5 -36t-44 -31t-52 -20.5t-41.5 -7.5h-1161q-6 0 -26.5 3.5t-26.5 5.5q-10 4 -27.5 12t-34 19.5t-29 25.5t-12.5 29zM53 877q0 -7 2 -9 q10 -16 39 -42.5t56 -26.5h1206q14 0 32.5 8t34 20.5t26.5 27.5t11 30q0 14 -11 29.5t-26.5 28.5t-34 21.5t-32.5 8.5h-1206q-12 0 -29 -9.5t-32 -22.5t-25.5 -28.5t-10.5 -27.5v-8z" />
<glyph unicode="&#x2012;" horiz-adv-x="1513" d="M20 748v172q0 14 14.5 29.5t35 27.5t40 20.5t31.5 8.5h1231q12 0 31.5 -8.5t40 -20.5t35 -27.5t14.5 -29.5v-172q0 -18 -18.5 -36t-44 -31t-52 -20.5t-41.5 -7.5h-1161q-6 0 -26.5 3.5t-26.5 5.5q-10 4 -27.5 12t-34 19.5t-29 25.5t-12.5 29zM53 877q0 -7 2 -9 q10 -16 39 -42.5t56 -26.5h1206q14 0 32.5 8t34 20.5t26.5 27.5t11 30q0 14 -11 29.5t-26.5 28.5t-34 21.5t-32.5 8.5h-1206q-12 0 -29 -9.5t-32 -22.5t-25.5 -28.5t-10.5 -27.5v-8z" />
<glyph unicode="&#x2013;" horiz-adv-x="1064" d="M20 748v172q0 14 10 29.5t24.5 27.5t28 20.5t21.5 8.5h856q8 0 21.5 -8.5t28 -20.5t24.5 -27.5t10 -29.5v-172q0 -18 -13 -36t-30.5 -31t-36 -20.5t-28.5 -7.5h-808q-4 0 -18 3.5t-18 5.5q-7 4 -19.5 12t-24 19.5t-20 25.5t-8.5 29zM43 877q0 -7 1 -9q7 -16 27.5 -42.5 t38.5 -26.5h839q9 0 22 8t24 20.5t18.5 27.5t7.5 30q0 14 -7.5 29.5t-18.5 28.5t-24 21.5t-22 8.5h-839q-8 0 -20 -9.5t-22 -22.5t-17.5 -28.5t-7.5 -27.5v-8z" />
<glyph unicode="&#x2014;" horiz-adv-x="2088" d="M20 748v172q0 14 20 29.5t48.5 27.5t56 20.5t43.5 8.5h1712q16 0 43.5 -8.5t56 -20.5t48.5 -27.5t20 -29.5v-172q0 -18 -25.5 -36t-61 -31t-72.5 -20.5t-58 -7.5h-1614q-8 0 -36.5 3.5t-37.5 5.5q-14 4 -38 12t-47 19.5t-40.5 25.5t-17.5 29zM66 877q0 -7 3 -9 q14 -16 54 -42.5t78 -26.5h1677q19 0 44.5 8t47.5 20.5t37 27.5t15 30q0 14 -15 29.5t-37 28.5t-47.5 21.5t-44.5 8.5h-1677q-17 0 -40.5 -9.5t-44.5 -22.5t-35.5 -28.5t-14.5 -27.5v-8z" />
<glyph unicode="&#x202f;" horiz-adv-x="331" />
<glyph unicode="&#x205f;" horiz-adv-x="413" />
<glyph unicode="&#xe000;" horiz-adv-x="1249" d="M0 0v1249h1249v-1249h-1249z" />
</font>
</defs>
</svg>
